<svg width="27" height="25" viewBox="0 0 27 25" fill="none" xmlns="http://www.w3.org/2000/svg">
<path d="M26.5174 21.6484C25.9672 23.1937 23.7843 24.4744 22.0434 24.8491C20.8516 25.1009 19.2959 25.3026 14.0584 23.1426C7.35795 20.382 3.04337 13.6105 2.70751 13.1712C2.38503 12.7317 0 9.58606 0 6.33163C0 3.07786 1.66124 1.49311 2.33124 0.813465C2.88075 0.254569 3.79 0 4.66209 0C4.94435 0 5.19775 0.0138372 5.42621 0.0253051C6.09582 0.0539276 6.43178 0.0932594 6.87389 1.1449C7.42388 2.46314 8.76292 5.71681 8.92297 6.05156C9.0855 6.38612 9.24746 6.83925 9.01966 7.27844C8.80563 7.73223 8.61787 7.93335 8.28154 8.31861C7.9451 8.70464 7.62558 8.9993 7.28963 9.41271C6.98205 9.77267 6.63425 10.1583 7.02199 10.8245C7.40945 11.4765 8.74859 13.65 10.7205 15.396C13.266 17.6493 15.3288 18.3694 16.0672 18.6757C16.6172 18.9027 17.2725 18.8484 17.6739 18.4233C18.1842 17.876 18.8146 16.9692 19.4555 16.0767C19.9114 15.436 20.4869 15.3565 21.0912 15.5831C21.7066 15.7958 24.964 17.3974 25.6338 17.729C26.3032 18.0634 26.7455 18.2221 26.9078 18.5028C27.0674 18.7829 27.0674 20.1012 26.5174 21.6484Z" fill="#447BE2"/>
</svg>
