<svg  fill="none" xmlns="http://www.w3.org/2000/svg">
<path opacity="0.7" d="M47.0152 0.47229C43.9234 0.473102 40.9021 1.39595 38.3376 3.12284C35.7731 4.84973 33.7818 7.30221 32.6184 10.1667C31.455 13.0312 31.1723 16.1776 31.8065 19.2036C32.4407 22.2297 33.9629 24.9978 36.1785 27.1542L63.8924 54.8681C33.868 78.981 14.3976 108.546 4.76125 125.898C-0.398588 135.192 -0.229085 146.381 4.82196 155.737C22.7726 188.965 74.3804 264.832 171.5 264.832C203.758 264.832 230.652 256.358 252.973 243.948L284.845 275.821C286.277 277.312 287.993 278.503 289.891 279.324C291.789 280.144 293.831 280.577 295.899 280.599C297.967 280.62 300.018 280.228 301.932 279.446C303.847 278.665 305.586 277.509 307.048 276.047C308.51 274.585 309.666 272.845 310.447 270.931C311.229 269.017 311.621 266.966 311.6 264.898C311.579 262.83 311.145 260.788 310.325 258.889C309.505 256.991 308.314 255.276 306.822 253.844L58.1554 5.17729C56.707 3.68848 54.975 2.50506 53.0616 1.69695C51.1482 0.888831 49.0922 0.472411 47.0152 0.47229ZM171.5 16.1657C152.664 16.1657 135.845 19.2697 120.474 24.1187L160.269 63.9139C163.952 63.3699 167.661 62.7907 171.5 62.7907C214.411 62.7907 249.209 97.5885 249.209 140.499C249.209 144.338 248.629 148.047 248.085 151.73L301.389 205.033C318.08 186.508 330.297 167.717 337.602 155.221C343.104 145.834 343.081 134.303 337.875 124.745C319.707 91.2837 268.154 16.1657 171.5 16.1657ZM106.753 97.7291L129.489 120.465C126.556 126.524 124.875 133.297 124.875 140.499C124.875 166.252 145.748 187.124 171.5 187.124C178.703 187.124 185.475 185.443 191.534 182.51L214.301 205.276C198.859 215.515 179.591 220.421 159.055 217.236C126.448 212.169 99.8299 185.551 94.7633 152.945C91.5799 132.417 96.5235 113.167 106.753 97.7291Z" fill="#F1F5FA"/>
</svg>
