<svg width="85" height="85" viewBox="0 0 85 85" fill="none" xmlns="http://www.w3.org/2000/svg">
<path d="M14.1323 10.5898C13.4277 10.59 12.7392 10.8003 12.1548 11.1939C11.5704 11.5874 11.1166 12.1463 10.8515 12.799C10.5864 13.4518 10.522 14.1688 10.6665 14.8584C10.811 15.548 11.1579 16.1788 11.6628 16.6702L17.9783 22.9857C11.1362 28.4806 6.69931 35.2178 4.50334 39.1722C3.32751 41.2901 3.36614 43.8398 4.51718 45.9719C8.6078 53.544 20.3683 70.8328 42.5002 70.8328C49.8511 70.8328 55.9798 68.9016 61.0663 66.0737L68.3294 73.3368C68.6558 73.6767 69.0467 73.9481 69.4792 74.1351C69.9118 74.322 70.3773 74.4208 70.8484 74.4256C71.3196 74.4304 71.787 74.3411 72.2233 74.163C72.6595 73.9849 73.0559 73.7215 73.3891 73.3883C73.7223 73.0551 73.9856 72.6588 74.1637 72.2225C74.3418 71.7863 74.4311 71.3189 74.4263 70.8477C74.4215 70.3765 74.3228 69.911 74.1358 69.4785C73.9489 69.0459 73.6775 68.655 73.3376 68.3287L16.6709 11.662C16.3409 11.3228 15.9462 11.0531 15.5101 10.8689C15.0741 10.6848 14.6056 10.5899 14.1323 10.5898ZM42.5002 14.1661C38.2077 14.1661 34.3749 14.8734 30.8722 15.9784L39.9408 25.047C40.7801 24.9231 41.6254 24.7911 42.5002 24.7911C52.2787 24.7911 60.2085 32.7209 60.2085 42.4994C60.2085 43.3742 60.0765 44.2195 59.9526 45.0588L72.0994 57.2057C75.9031 52.984 78.6871 48.7018 80.3517 45.8543C81.6055 43.7152 81.6004 41.0875 80.414 38.9093C76.2738 31.2841 64.5258 14.1661 42.5002 14.1661ZM27.7455 32.7529L32.9266 37.934C32.2582 39.3149 31.8752 40.8581 31.8752 42.4994C31.8752 48.368 36.6316 53.1244 42.5002 53.1244C44.1415 53.1244 45.6847 52.7414 47.0656 52.073L52.2536 57.261C48.7347 59.5942 44.3439 60.7122 39.6641 59.9864C32.2337 58.8318 26.1678 52.7659 25.0132 45.3355C24.2878 40.6578 25.4143 36.271 27.7455 32.7529Z" fill="#F1F5FA"/>
</svg>
