<svg width="24" height="33" viewBox="0 0 24 33" fill="none" xmlns="http://www.w3.org/2000/svg">
<g opacity="0.5">
<g>
<path d="M13.3779 8.13402V15.6821V13.6033C13.3779 12.9768 13.8688 12.4694 14.4747 12.4694C15.0796 12.4694 15.5715 12.9768 15.5715 13.6033V15.6821V14.7369C15.5715 14.1106 16.0634 13.6033 16.6692 13.6033C17.2751 13.6033 17.7661 14.1106 17.7661 14.7369V16.248L17.7651 16.8175V16.2485C17.7651 15.6219 18.257 15.1149 18.8619 15.1149C19.4687 15.1149 19.9596 15.6219 19.9596 16.2485V22.1136V22.1126C19.9596 23.1202 19.5642 24.0307 18.9252 24.6916C18.1527 25.4921 17.7661 26.538 17.7661 27.5849C15.9484 29.4717 13.0009 29.4717 11.1843 27.5849H11.1823V24.7068C9.87222 23.9216 8.98971 22.4613 8.98971 20.7837L7.63965 13.7398C8.82605 13.4947 9.98225 14.2941 10.218 15.5222V15.523L10.7917 18.515H11.1843L11.1823 8.13411C11.1823 7.50706 11.6742 7 12.2801 7C12.886 6.99992 13.3779 7.50697 13.3779 8.13402Z" stroke="#28292B" stroke-width="0.7" stroke-miterlimit="10" stroke-linecap="round" stroke-linejoin="round"/>
<path d="M5 8.31923L6.76 9.64V7L5 8.31923Z" stroke="#28292B" stroke-width="0.7" stroke-miterlimit="10" stroke-linecap="round" stroke-linejoin="round"/>
<path d="M19.0803 8.32119L17.3203 7L17.3211 9.64L19.0803 8.32119Z" stroke="#28292B" stroke-width="0.7" stroke-miterlimit="10" stroke-linecap="round" stroke-linejoin="round"/>
<path d="M13.7998 7.87988H17.3198H13.7998Z" stroke="#28292B" stroke-width="0.7" stroke-miterlimit="10" stroke-linecap="round" stroke-linejoin="round"/>
<path d="M6.75977 7.87988H11.1598H6.75977Z" stroke="#28292B" stroke-width="0.7" stroke-miterlimit="10" stroke-linecap="round" stroke-linejoin="round"/>
</g>
</g>
</svg>
