<svg width="15" height="14" viewBox="0 0 15 14" fill="none" xmlns="http://www.w3.org/2000/svg">
<path d="M14.7295 12.1231C14.4239 12.9885 13.2113 13.7057 12.2443 13.9155C11.5823 14.0565 10.7182 14.1695 7.80894 12.9598C4.08707 11.4139 1.69048 7.62185 1.50393 7.37585C1.3248 7.12974 0 5.36819 0 3.54571C0 1.7236 0.922757 0.83614 1.29492 0.455541C1.60015 0.142559 2.10521 0 2.58962 0C2.74641 0 2.88716 0.00774882 3.01406 0.0141709C3.38601 0.0301994 3.57262 0.0522253 3.8182 0.641143C4.1237 1.37936 4.86749 3.20142 4.95639 3.38888C5.04667 3.57623 5.13663 3.82998 5.0101 4.07593C4.89121 4.33005 4.78692 4.44268 4.60009 4.65842C4.41322 4.8746 4.23574 5.03961 4.04913 5.27112C3.87828 5.4727 3.68509 5.68866 3.90046 6.06172C4.11568 6.42682 4.85953 7.64398 5.95483 8.62178C7.36879 9.88363 8.51457 10.2868 8.92473 10.4584C9.23023 10.5855 9.59427 10.5551 9.81724 10.317C10.1007 10.0106 10.4508 9.50277 10.8068 9.00296C11.06 8.64418 11.3798 8.59965 11.7154 8.72655C12.0573 8.84565 13.8666 9.74256 14.2386 9.92822C14.6105 10.1155 14.8562 10.2044 14.9463 10.3616C15.035 10.5184 15.035 11.2567 14.7295 12.1231Z" fill="#447BE2"/>
</svg>
