<svg width="20" height="20" viewBox="0 0 20 20" fill="none" xmlns="http://www.w3.org/2000/svg">
<path d="M15.8978 4.10672C14.1628 2.37089 11.7961 1.49505 9.31111 1.69505C5.97028 1.96339 3.04194 4.28672 2.06194 7.49172C1.36194 9.78172 1.65611 12.1726 2.79611 14.1476L1.71611 17.7334C1.61278 18.0776 1.92694 18.4017 2.27444 18.3092L6.02778 17.3034C7.24361 17.9667 8.61195 18.3159 10.0053 18.3167H10.0086C13.5044 18.3167 16.7344 16.1784 17.8519 12.8659C18.9403 9.63589 18.1353 6.34672 15.8978 4.10672ZM14.0819 12.9617C13.9086 13.4476 13.0594 13.9159 12.6778 13.9501C12.2961 13.9851 11.9386 14.1226 10.1819 13.4301C8.06778 12.5967 6.73278 10.4292 6.62945 10.2909C6.52528 10.1517 5.78028 9.16339 5.78028 8.14005C5.78028 7.11672 6.31778 6.61339 6.50861 6.40589C6.69945 6.19755 6.92445 6.14589 7.06361 6.14589C7.20195 6.14589 7.34111 6.14589 7.46195 6.15089C7.61028 6.15672 7.77445 6.16422 7.93028 6.51005C8.11528 6.92172 8.51945 7.95005 8.57111 8.05422C8.62278 8.15839 8.65778 8.28005 8.58861 8.41839C8.51945 8.55672 8.48445 8.64339 8.38111 8.76505C8.27695 8.88672 8.16278 9.03589 8.06945 9.12922C7.96528 9.23255 7.85695 9.34589 7.97778 9.55339C8.09945 9.76172 8.51611 10.4426 9.13445 10.9934C9.92945 11.7017 10.5986 11.9209 10.8069 12.0259C11.0153 12.1301 11.1361 12.1126 11.2578 11.9734C11.3794 11.8351 11.7778 11.3667 11.9161 11.1584C12.0544 10.9501 12.1936 10.9851 12.3844 11.0542C12.5753 11.1234 13.5978 11.6267 13.8053 11.7309C14.0136 11.8351 14.1519 11.8867 14.2036 11.9734C14.2553 12.0592 14.2553 12.4759 14.0819 12.9617Z" fill="#447BE2"/>
</svg>
