<svg width="14" height="13" viewBox="0 0 14 13" fill="none" xmlns="http://www.w3.org/2000/svg">
<g clip-path="url(#clip0_310_2269)">
<path d="M8.19103 6.51415L13.253 1.45207C13.5824 1.1228 13.5824 0.590423 13.253 0.261156C12.9237 -0.0681109 12.3913 -0.0681109 12.0621 0.261156L6.99995 5.32323L1.93799 0.261156C1.60857 -0.0681109 1.07634 -0.0681109 0.747068 0.261156C0.417644 0.590423 0.417644 1.1228 0.747068 1.45207L5.80903 6.51415L0.747068 11.5762C0.417644 11.9055 0.417644 12.4379 0.747068 12.7671C0.911163 12.9314 1.12692 13.0139 1.34253 13.0139C1.55814 13.0139 1.77374 12.9314 1.93799 12.7671L6.99995 7.70506L12.0621 12.7671C12.2263 12.9314 12.4419 13.0139 12.6575 13.0139C12.8731 13.0139 13.0887 12.9314 13.253 12.7671C13.5824 12.4379 13.5824 11.9055 13.253 11.5762L8.19103 6.51415Z" fill="white"/>
</g>
<defs>
<clipPath id="clip0_310_2269">
<rect width="13" height="13" fill="white" transform="translate(0.5)"/>
</clipPath>
</defs>
</svg>
