<svg width="137" height="107" viewBox="0 0 137 107" fill="none" xmlns="http://www.w3.org/2000/svg">
<g id="Frame 100" opacity="0.3">
<g id="Group 100">
<path id="Vector" d="M99.2891 1.41554C99.2891 1.41554 99.3619 1.41066 99.4931 1.4131C99.6219 1.41798 99.8186 1.4131 100.054 1.43506C100.53 1.47167 101.194 1.56197 101.949 1.75476C102.705 1.94512 103.55 2.23798 104.403 2.63333C105.255 3.02869 106.113 3.53142 106.912 4.10249C107.709 4.676 108.45 5.31541 109.076 5.98165C109.705 6.64546 110.225 7.32879 110.619 7.96087C110.816 8.27569 110.983 8.57587 111.119 8.85165C111.255 9.12742 111.365 9.37391 111.447 9.58623C111.532 9.79367 111.581 9.97426 111.622 10.089C111.659 10.2085 111.673 10.2744 111.673 10.2744C111.673 10.2744 111.605 10.2647 111.484 10.233C111.367 10.2012 111.185 10.1646 110.971 10.0963C110.755 10.0328 110.502 9.94986 110.218 9.84736C109.936 9.74486 109.625 9.62039 109.295 9.47885C108.634 9.19575 107.901 8.82724 107.15 8.39528C106.397 7.96332 105.632 7.46058 104.881 6.92368C104.133 6.38189 103.399 5.80838 102.731 5.22023C102.061 4.63452 101.449 4.03904 100.938 3.48506C100.423 2.93351 100.008 2.42589 99.7263 2.04518C99.583 1.8597 99.4785 1.69375 99.4032 1.58881C99.3279 1.47899 99.2891 1.41554 99.2891 1.41554Z" fill="#B9C6E0"/>
<path id="Vector_2" d="M102.108 12.9639C102.108 12.9639 102.142 12.92 102.208 12.8517C102.276 12.7882 102.371 12.6784 102.502 12.5735C102.759 12.3514 103.141 12.0805 103.627 11.8438C104.11 11.6046 104.7 11.4069 105.364 11.2922C106.024 11.1751 106.76 11.1531 107.516 11.2166C108.271 11.2873 109.049 11.446 109.794 11.6998C110.538 11.9511 111.247 12.2879 111.859 12.654C112.165 12.8395 112.447 13.025 112.697 13.208C112.947 13.391 113.166 13.5667 113.348 13.7254C113.528 13.8767 113.671 14.0255 113.769 14.1134C113.866 14.2061 113.919 14.2672 113.919 14.2672C113.919 14.2672 113.878 14.3038 113.8 14.3575C113.72 14.4063 113.606 14.4966 113.458 14.5747C113.309 14.6601 113.127 14.7479 112.918 14.8358C112.709 14.9236 112.471 15.0066 112.209 15.0823C111.687 15.2336 111.072 15.3336 110.409 15.3678C109.746 15.4044 109.029 15.3678 108.308 15.2751C107.584 15.1799 106.853 15.031 106.151 14.826C105.451 14.6235 104.781 14.3745 104.188 14.1085C103.595 13.845 103.083 13.5667 102.711 13.3447C102.526 13.2373 102.376 13.1299 102.274 13.0689C102.164 13.0054 102.108 12.9639 102.108 12.9639Z" fill="#B9C6E0"/>
<path id="Vector_3" d="M111.979 0.000305176C111.979 0.000305176 111.945 0.0442336 111.901 0.12965C111.862 0.215066 111.784 0.33709 111.726 0.498161C111.597 0.817862 111.468 1.28155 111.408 1.8453C111.342 2.40905 111.352 3.07774 111.442 3.80011C111.529 4.52249 111.709 5.301 111.945 6.08927C112.185 6.87755 112.484 7.67558 112.834 8.43945C113.181 9.20331 113.57 9.93301 113.958 10.5749C114.153 10.897 114.342 11.1947 114.524 11.4632C114.707 11.7316 114.874 11.9708 115.025 12.1709C115.168 12.3686 115.309 12.5321 115.392 12.6419C115.479 12.7518 115.535 12.8128 115.535 12.8128C115.535 12.8128 115.576 12.7762 115.637 12.7029C115.693 12.6297 115.795 12.5248 115.887 12.3832C115.984 12.2417 116.089 12.0684 116.193 11.8634C116.295 11.6584 116.395 11.4217 116.482 11.1581C116.657 10.631 116.774 9.99158 116.786 9.27409C116.803 8.55903 116.706 7.76588 116.507 6.94832C116.303 6.13076 115.994 5.29124 115.586 4.48833C115.18 3.68297 114.685 2.91667 114.165 2.25042C113.65 1.58661 113.115 1.02286 112.695 0.627506C112.491 0.429828 112.297 0.271197 112.18 0.166257C112.054 0.0588764 111.979 0.000305176 111.979 0.000305176Z" fill="#B9C6E0"/>
<path id="Vector_4" d="M108.739 19.0696C108.739 19.0696 108.781 19.033 108.858 18.9769C108.936 18.9281 109.05 18.8378 109.196 18.7548C109.49 18.584 109.91 18.3839 110.423 18.2374C110.938 18.0861 111.545 17.9934 112.203 17.9934C112.862 17.9885 113.573 18.0886 114.29 18.2789C115.004 18.4717 115.721 18.7573 116.391 19.1282C117.059 19.4943 117.679 19.9384 118.199 20.3997C118.459 20.6291 118.694 20.8585 118.903 21.0781C119.11 21.2978 119.289 21.5052 119.433 21.6883C119.578 21.8664 119.69 22.0324 119.765 22.1349C119.841 22.2423 119.88 22.3081 119.88 22.3081C119.88 22.3081 119.833 22.3374 119.746 22.3765C119.659 22.4106 119.532 22.479 119.372 22.5302C119.212 22.5888 119.017 22.6425 118.796 22.6937C118.575 22.7425 118.327 22.7816 118.06 22.8109C117.523 22.867 116.909 22.8621 116.258 22.784C115.607 22.7084 114.922 22.5522 114.239 22.3423C113.556 22.1276 112.879 21.8615 112.245 21.5467C111.608 21.2343 111.013 20.8805 110.498 20.5266C109.983 20.1727 109.546 19.8213 109.235 19.5455C109.079 19.4137 108.955 19.282 108.873 19.2063C108.785 19.1209 108.739 19.0696 108.739 19.0696Z" fill="#B9C6E0"/>
<path id="Vector_5" d="M120.868 8.19025C120.868 8.19025 120.827 8.22685 120.766 8.30007C120.71 8.37572 120.611 8.48066 120.523 8.62709C120.334 8.91506 120.115 9.33971 119.94 9.87661C119.763 10.4111 119.634 11.0554 119.573 11.768C119.51 12.4806 119.525 13.2615 119.593 14.062C119.666 14.8649 119.795 15.6849 119.979 16.483C120.161 17.2786 120.392 18.0497 120.642 18.7379C120.769 19.0821 120.893 19.4042 121.016 19.6946C121.14 19.985 121.257 20.2462 121.364 20.4634C121.466 20.6806 121.568 20.8612 121.629 20.9807C121.692 21.1028 121.733 21.1711 121.733 21.1711C121.733 21.1711 121.779 21.1418 121.855 21.0832C121.925 21.0198 122.042 20.9368 122.158 20.8148C122.282 20.6952 122.416 20.5439 122.557 20.3609C122.697 20.1803 122.838 19.9679 122.974 19.7263C123.249 19.2456 123.484 18.6452 123.638 17.9546C123.793 17.2639 123.856 16.4805 123.825 15.6581C123.788 14.8332 123.659 13.9693 123.426 13.1249C123.195 12.2805 122.872 11.4556 122.508 10.7259C122.146 9.99863 121.748 9.36655 121.427 8.91506C121.271 8.69054 121.118 8.50751 121.026 8.38548C120.931 8.25858 120.868 8.19025 120.868 8.19025Z" fill="#B9C6E0"/>
<path id="Vector_6" d="M113.92 26.0818C113.92 26.0818 113.966 26.0525 114.053 26.0135C114.138 25.9793 114.267 25.911 114.425 25.8573C114.743 25.7401 115.19 25.6181 115.72 25.562C116.249 25.5034 116.857 25.5156 117.498 25.6279C118.139 25.7352 118.815 25.9549 119.475 26.2599C120.136 26.5699 120.78 26.9677 121.363 27.4411C121.946 27.9121 122.468 28.449 122.891 28.986C123.102 29.2544 123.292 29.518 123.452 29.7669C123.615 30.0183 123.751 30.2477 123.858 30.4502C123.967 30.6479 124.045 30.8309 124.101 30.9432C124.154 31.0604 124.181 31.1311 124.181 31.1311C124.181 31.1311 124.13 31.1506 124.037 31.1751C123.947 31.1946 123.809 31.2385 123.641 31.2605C123.474 31.2898 123.275 31.3093 123.049 31.319C122.823 31.3288 122.575 31.3239 122.305 31.3068C121.771 31.2702 121.168 31.158 120.547 30.9701C119.922 30.7846 119.281 30.5137 118.654 30.1915C118.028 29.867 117.418 29.4911 116.857 29.0763C116.295 28.6638 115.781 28.2196 115.348 27.7877C114.913 27.3582 114.556 26.9408 114.306 26.6211C114.182 26.4649 114.085 26.3185 114.019 26.2307C113.954 26.1404 113.92 26.0818 113.92 26.0818Z" fill="#B9C6E0"/>
<path id="Vector_7" d="M127.816 17.5933C127.816 17.5933 127.769 17.6226 127.697 17.6836C127.629 17.7471 127.512 17.8325 127.395 17.9594C127.155 18.2059 126.861 18.5817 126.589 19.0698C126.312 19.5579 126.064 20.1607 125.867 20.8416C125.668 21.52 125.535 22.2815 125.447 23.0722C125.365 23.8629 125.333 24.6829 125.365 25.4882C125.391 26.2936 125.474 27.0819 125.59 27.792C125.649 28.1483 125.712 28.4827 125.778 28.7853C125.846 29.0904 125.911 29.3613 125.974 29.5931C126.033 29.8225 126.101 30.0153 126.137 30.1422C126.176 30.2716 126.205 30.3448 126.205 30.3448C126.205 30.3448 126.256 30.3252 126.341 30.2789C126.421 30.2301 126.552 30.1691 126.688 30.069C126.832 29.9738 126.99 29.8494 127.162 29.698C127.332 29.5467 127.51 29.3637 127.689 29.1538C128.046 28.7341 128.389 28.1898 128.666 27.5431C128.945 26.8988 129.154 26.1472 129.276 25.3418C129.395 24.534 129.429 23.6725 129.363 22.811C129.297 21.952 129.14 21.0954 128.923 20.3266C128.71 19.5579 128.442 18.8794 128.219 18.3865C128.112 18.1424 127.998 17.9374 127.932 17.8056C127.862 17.669 127.816 17.5933 127.816 17.5933Z" fill="#B9C6E0"/>
<path id="Vector_8" d="M117.651 33.7786C117.651 33.7786 117.702 33.7591 117.795 33.7347C117.884 33.7152 118.023 33.6712 118.188 33.6468C118.521 33.5882 118.982 33.5468 119.51 33.5834C120.039 33.6175 120.632 33.7347 121.242 33.9543C121.851 34.1715 122.473 34.501 123.066 34.911C123.656 35.3283 124.22 35.8286 124.706 36.3923C125.194 36.9537 125.612 37.5687 125.932 38.1666C126.093 38.4667 126.231 38.7547 126.345 39.0281C126.46 39.3014 126.554 39.5503 126.625 39.7675C126.698 39.9798 126.741 40.1726 126.778 40.2922C126.812 40.4167 126.824 40.4899 126.824 40.4899C126.824 40.4899 126.77 40.4997 126.676 40.507C126.583 40.5094 126.44 40.5265 126.272 40.5192C126.102 40.5167 125.903 40.5021 125.68 40.4728C125.456 40.4435 125.211 40.3947 124.951 40.3313C124.431 40.2019 123.858 39.9872 123.28 39.6943C122.699 39.4039 122.116 39.0281 121.557 38.6059C121.001 38.1788 120.467 37.7078 119.991 37.205C119.514 36.7047 119.089 36.1825 118.742 35.6846C118.392 35.1916 118.118 34.7231 117.933 34.3692C117.838 34.1959 117.773 34.0373 117.724 33.9397C117.673 33.8396 117.651 33.7786 117.651 33.7786Z" fill="#B9C6E0"/>
<path id="Vector_9" d="M132.819 27.9144C132.819 27.9144 132.768 27.9339 132.685 27.9827C132.608 28.034 132.477 28.095 132.34 28.1975C132.061 28.3951 131.702 28.71 131.345 29.1395C130.985 29.5666 130.63 30.1108 130.315 30.7404C129.996 31.3676 129.724 32.0851 129.498 32.8392C129.275 33.5958 129.098 34.3889 128.983 35.1821C128.867 35.9728 128.806 36.7562 128.796 37.4712C128.791 37.83 128.794 38.1668 128.806 38.4743C128.818 38.7842 128.835 39.0624 128.857 39.2992C128.874 39.5334 128.908 39.7336 128.92 39.8653C128.937 39.9971 128.952 40.0752 128.952 40.0752C128.952 40.0752 129.005 40.0655 129.098 40.0337C129.185 39.9996 129.323 39.963 129.476 39.8897C129.634 39.8214 129.812 39.7287 130.008 39.6091C130.203 39.4895 130.409 39.3431 130.621 39.1674C131.046 38.8184 131.478 38.3474 131.864 37.7641C132.253 37.1833 132.591 36.4853 132.855 35.719C133.115 34.9502 133.305 34.118 133.392 33.2639C133.485 32.4146 133.482 31.5531 133.409 30.7648C133.339 29.979 133.203 29.2713 133.072 28.7539C133.011 28.4976 132.936 28.278 132.897 28.1389C132.851 27.9973 132.819 27.9144 132.819 27.9144Z" fill="#B9C6E0"/>
<path id="Vector_10" d="M119.935 41.9374C119.935 41.9374 119.988 41.9276 120.083 41.9203C120.175 41.9178 120.318 41.8983 120.484 41.9032C120.821 41.9032 121.283 41.9447 121.793 42.0716C122.308 42.1985 122.871 42.4157 123.433 42.7378C123.994 43.0575 124.548 43.4871 125.06 43.9947C125.57 44.5072 126.037 45.0953 126.418 45.7347C126.802 46.3717 127.106 47.0477 127.319 47.6895C127.426 48.0117 127.514 48.3192 127.579 48.6072C127.645 48.8951 127.693 49.1563 127.725 49.3832C127.761 49.6053 127.771 49.8005 127.786 49.925C127.798 50.0544 127.798 50.1276 127.798 50.1276C127.798 50.1276 127.742 50.1276 127.647 50.1178C127.555 50.1032 127.412 50.0958 127.246 50.0592C127.079 50.0275 126.885 49.9763 126.671 49.9104C126.457 49.842 126.224 49.7517 125.978 49.6419C125.488 49.4247 124.963 49.1123 124.443 48.7219C123.923 48.3338 123.413 47.8628 122.937 47.3503C122.463 46.8329 122.019 46.2765 121.637 45.7006C121.254 45.127 120.928 44.5413 120.673 43.9947C120.416 43.4504 120.229 42.9428 120.107 42.5646C120.044 42.3791 120.007 42.2107 119.976 42.1082C119.947 42.0008 119.935 41.9374 119.935 41.9374Z" fill="#B9C6E0"/>
<path id="Vector_11" d="M135.882 38.855C135.882 38.855 135.828 38.8647 135.739 38.8965C135.654 38.9331 135.513 38.9697 135.362 39.0478C135.051 39.1918 134.643 39.4383 134.218 39.7946C133.79 40.1484 133.346 40.6194 132.926 41.1807C132.503 41.7396 132.112 42.3961 131.757 43.0941C131.405 43.7969 131.094 44.5413 130.844 45.2978C130.591 46.0519 130.397 46.8109 130.263 47.5089C130.195 47.8603 130.142 48.1898 130.1 48.4948C130.059 48.7999 130.027 49.0757 130.008 49.3124C129.986 49.5442 129.984 49.7492 129.974 49.8786C129.967 50.0128 129.969 50.0909 129.969 50.0909C129.969 50.0909 130.025 50.0909 130.117 50.0763C130.21 50.0592 130.353 50.047 130.516 50.003C130.681 49.964 130.875 49.903 131.087 49.82C131.298 49.737 131.526 49.6272 131.767 49.4954C132.245 49.227 132.751 48.8414 133.234 48.3362C133.717 47.8359 134.169 47.2087 134.56 46.5034C134.949 45.7957 135.279 45.0123 135.513 44.1923C135.751 43.3747 135.899 42.5328 135.964 41.7469C136.032 40.966 136.02 40.2485 135.984 39.7189C135.969 39.4578 135.935 39.2308 135.921 39.0868C135.896 38.9404 135.882 38.855 135.882 38.855Z" fill="#B9C6E0"/>
<path id="Vector_12" d="M120.768 50.3323C120.768 50.3323 120.823 50.3323 120.916 50.3421C121.008 50.3543 121.151 50.3616 121.314 50.3958C121.647 50.4568 122.094 50.5764 122.575 50.7936C123.058 51.0083 123.578 51.3232 124.074 51.738C124.572 52.1505 125.045 52.6727 125.461 53.2609C125.876 53.8539 126.233 54.5153 126.5 55.2133C126.77 55.9064 126.952 56.6287 127.054 57.2999C127.105 57.6367 127.137 57.9564 127.154 58.2517C127.171 58.5469 127.173 58.813 127.166 59.0424C127.164 59.2669 127.139 59.4621 127.132 59.5866C127.122 59.7159 127.11 59.7891 127.11 59.7891C127.11 59.7891 127.057 59.7794 126.964 59.7525C126.877 59.7233 126.736 59.6891 126.581 59.6256C126.423 59.5646 126.238 59.4816 126.039 59.3767C125.84 59.2718 125.626 59.1424 125.402 58.9911C124.958 58.6885 124.492 58.2883 124.047 57.8148C123.6 57.3414 123.18 56.7874 122.798 56.1968C122.419 55.6037 122.077 54.9765 121.8 54.3445C121.521 53.7124 121.3 53.0779 121.142 52.4946C120.981 51.9138 120.884 51.3817 120.831 50.9888C120.802 50.796 120.792 50.6252 120.78 50.5154C120.768 50.3982 120.768 50.3323 120.768 50.3323Z" fill="#B9C6E0"/>
<path id="Vector_13" d="M137 50.1151C137 50.1151 136.944 50.115 136.852 50.1321C136.762 50.1517 136.616 50.1663 136.456 50.2127C136.126 50.3005 135.681 50.4689 135.203 50.7447C134.719 51.018 134.202 51.4012 133.692 51.8795C133.179 52.353 132.681 52.9289 132.212 53.5537C131.746 54.1833 131.311 54.8618 130.937 55.5622C130.56 56.2601 130.24 56.9728 129.987 57.639C129.861 57.9734 129.749 58.2882 129.657 58.5835C129.564 58.8788 129.487 59.1448 129.428 59.3742C129.365 59.5987 129.329 59.8013 129.297 59.9257C129.268 60.0575 129.256 60.1332 129.256 60.1332C129.256 60.1332 129.309 60.1429 129.404 60.1454C129.496 60.1429 129.64 60.1576 129.807 60.1429C129.977 60.1332 130.179 60.1063 130.4 60.0648C130.623 60.0209 130.866 59.955 131.124 59.8647C131.641 59.6841 132.207 59.3937 132.766 58.9813C133.327 58.5713 133.879 58.0344 134.386 57.4096C134.889 56.78 135.348 56.0674 135.72 55.301C136.094 54.5396 136.383 53.7343 136.582 52.9753C136.784 52.2187 136.896 51.511 136.947 50.9863C136.976 50.7276 136.981 50.4982 136.993 50.3518C137.003 50.2029 137 50.1151 137 50.1151Z" fill="#B9C6E0"/>
<path id="Vector_14" d="M120.153 58.7471C120.153 58.7471 120.206 58.7569 120.298 58.7813C120.386 58.8106 120.527 58.8423 120.682 58.9033C120.998 59.0205 121.418 59.2181 121.856 59.5183C122.295 59.8161 122.752 60.2163 123.17 60.7141C123.59 61.2096 123.964 61.8075 124.275 62.464C124.581 63.1229 124.819 63.8404 124.963 64.5774C125.108 65.312 125.164 66.0563 125.145 66.7372C125.135 67.0789 125.111 67.401 125.077 67.6963C125.04 67.9916 124.997 68.2552 124.95 68.4822C124.909 68.7042 124.851 68.8922 124.822 69.0166C124.788 69.1411 124.763 69.2119 124.763 69.2119C124.763 69.2119 124.712 69.1948 124.627 69.1508C124.547 69.1045 124.414 69.0483 124.273 68.9556C124.127 68.8678 123.962 68.753 123.782 68.6139C123.605 68.4748 123.415 68.3089 123.223 68.121C122.837 67.7427 122.448 67.2644 122.094 66.7153C121.737 66.1686 121.418 65.5438 121.144 64.8947C120.874 64.2406 120.646 63.5622 120.481 62.8862C120.315 62.2126 120.206 61.5464 120.15 60.9411C120.092 60.3383 120.087 59.799 120.102 59.3987C120.107 59.2035 120.126 59.0327 120.133 58.9228C120.143 58.8106 120.153 58.7471 120.153 58.7471Z" fill="#B9C6E0"/>
<path id="Vector_15" d="M136.176 61.3976C136.176 61.3976 136.122 61.3879 136.028 61.3879C135.935 61.3928 135.79 61.3781 135.622 61.3976C135.282 61.4269 134.816 61.5148 134.296 61.7027C133.773 61.8882 133.198 62.1737 132.612 62.5544C132.027 62.9327 131.437 63.4135 130.868 63.9479C130.3 64.4873 129.756 65.0803 129.265 65.7075C128.774 66.3323 128.332 66.979 127.97 67.594C127.788 67.9015 127.623 68.1943 127.479 68.4701C127.336 68.7459 127.215 68.9948 127.115 69.212C127.015 69.4243 126.942 69.6171 126.889 69.7367C126.838 69.8612 126.811 69.9344 126.811 69.9344C126.811 69.9344 126.862 69.9539 126.957 69.9734C127.049 69.9881 127.188 70.0271 127.355 70.0418C127.525 70.0613 127.727 70.0711 127.953 70.0686C128.181 70.0637 128.432 70.0418 128.701 69.9978C129.241 69.91 129.85 69.7221 130.475 69.4121C131.099 69.1071 131.738 68.6727 132.343 68.1431C132.947 67.6111 133.523 66.9839 134.021 66.2932C134.522 65.605 134.944 64.8631 135.272 64.1481C135.6 63.4379 135.831 62.7594 135.974 62.2494C136.047 62.0004 136.093 61.7735 136.127 61.6319C136.161 61.4855 136.176 61.3976 136.176 61.3976Z" fill="#B9C6E0"/>
<path id="Vector_16" d="M118.088 66.9547C118.088 66.9547 118.139 66.9742 118.224 67.0157C118.304 67.0596 118.438 67.1157 118.581 67.2036C118.873 67.3768 119.252 67.6453 119.631 68.0187C120.012 68.3896 120.391 68.868 120.714 69.4342C121.04 70.0004 121.305 70.6593 121.492 71.3621C121.676 72.0699 121.781 72.824 121.79 73.5781C121.803 74.3322 121.722 75.079 121.579 75.755C121.509 76.0918 121.426 76.4066 121.336 76.6946C121.246 76.9825 121.154 77.2363 121.066 77.4511C120.984 77.6634 120.894 77.8416 120.841 77.9587C120.785 78.0783 120.746 78.1442 120.746 78.1442C120.746 78.1442 120.697 78.1174 120.622 78.0588C120.551 78.0002 120.43 77.9197 120.306 77.8025C120.177 77.6878 120.036 77.5463 119.886 77.3754C119.735 77.2046 119.582 77.0069 119.424 76.7873C119.113 76.3456 118.817 75.8013 118.569 75.1937C118.317 74.5884 118.117 73.9124 117.964 73.2193C117.816 72.5238 117.714 71.8087 117.673 71.1083C117.629 70.4104 117.641 69.7319 117.695 69.1218C117.746 68.5141 117.836 67.9772 117.921 67.5867C117.96 67.3939 118.011 67.228 118.035 67.123C118.069 67.0157 118.088 66.9547 118.088 66.9547Z" fill="#B9C6E0"/>
<path id="Vector_17" d="M133.409 72.4066C133.409 72.4066 133.358 72.3895 133.264 72.37C133.171 72.3578 133.033 72.3188 132.863 72.309C132.523 72.2773 132.049 72.2822 131.503 72.3773C130.956 72.4676 130.337 72.6507 129.693 72.9264C129.049 73.1973 128.383 73.5707 127.725 74.0002C127.069 74.4347 126.425 74.9276 125.828 75.4621C125.23 75.9941 124.679 76.5603 124.208 77.107C123.972 77.3803 123.756 77.6439 123.564 77.8904C123.372 78.1393 123.204 78.3662 123.068 78.5639C122.93 78.7567 122.823 78.9349 122.748 79.0447C122.675 79.1594 122.636 79.2277 122.636 79.2277C122.636 79.2277 122.685 79.2546 122.772 79.2912C122.859 79.3229 122.991 79.3839 123.153 79.4278C123.316 79.4791 123.515 79.523 123.739 79.5596C123.965 79.5938 124.217 79.6158 124.492 79.6206C125.041 79.628 125.677 79.5474 126.348 79.3498C127.021 79.157 127.728 78.8373 128.422 78.4199C129.117 77.9977 129.797 77.4779 130.412 76.88C131.026 76.2845 131.578 75.6232 132.027 74.9716C132.477 74.3248 132.824 73.6927 133.055 73.212C133.171 72.9777 133.254 72.7629 133.315 72.6287C133.38 72.4872 133.409 72.4066 133.409 72.4066Z" fill="#B9C6E0"/>
<path id="Vector_18" d="M114.576 74.7348C114.576 74.7348 114.624 74.7616 114.699 74.8202C114.772 74.8788 114.894 74.9569 115.015 75.0716C115.27 75.2937 115.596 75.628 115.899 76.0673C116.208 76.5041 116.492 77.0459 116.706 77.6658C116.922 78.2857 117.061 78.9861 117.114 79.7207C117.163 80.4553 117.126 81.2264 116.99 81.9781C116.857 82.7298 116.633 83.4619 116.363 84.1086C116.227 84.4332 116.084 84.731 115.941 85.0018C115.795 85.2727 115.654 85.5095 115.525 85.7096C115.402 85.9073 115.275 86.0683 115.202 86.1757C115.122 86.2831 115.074 86.3441 115.074 86.3441C115.074 86.3441 115.032 86.3075 114.967 86.2392C114.908 86.1684 114.802 86.0659 114.704 85.9292C114.6 85.7926 114.488 85.6266 114.369 85.4314C114.252 85.2361 114.138 85.0116 114.027 84.7651C113.806 84.2697 113.618 83.6767 113.487 83.0275C113.356 82.3783 113.288 81.6731 113.271 80.9556C113.259 80.2356 113.293 79.5059 113.388 78.8031C113.478 78.1002 113.618 77.4266 113.786 76.8312C113.949 76.2357 114.138 75.7183 114.296 75.3425C114.369 75.157 114.452 75.0033 114.495 74.9008C114.544 74.7934 114.576 74.7348 114.576 74.7348Z" fill="#B9C6E0"/>
<path id="Vector_19" d="M128.696 82.8398C128.696 82.8398 128.648 82.8129 128.56 82.7787C128.47 82.7495 128.339 82.6884 128.176 82.647C127.846 82.5567 127.377 82.4761 126.821 82.4761C126.265 82.4688 125.618 82.5445 124.931 82.7031C124.244 82.8593 123.515 83.1131 122.786 83.4255C122.057 83.7427 121.326 84.121 120.631 84.5481C119.939 84.9727 119.283 85.4413 118.71 85.9025C118.423 86.1344 118.158 86.3589 117.92 86.5712C117.682 86.786 117.471 86.9812 117.296 87.157C117.121 87.3253 116.98 87.484 116.885 87.5816C116.791 87.6817 116.737 87.7451 116.737 87.7451C116.737 87.7451 116.779 87.7817 116.861 87.833C116.941 87.8793 117.06 87.9647 117.213 88.038C117.366 88.1161 117.554 88.1966 117.77 88.2698C117.986 88.343 118.234 88.4089 118.506 88.4626C119.05 88.5651 119.696 88.5968 120.401 88.5163C121.105 88.4406 121.87 88.2454 122.638 87.9501C123.408 87.6499 124.18 87.2521 124.902 86.764C125.623 86.2808 126.294 85.7171 126.86 85.1484C127.426 84.5847 127.887 84.0161 128.203 83.5792C128.361 83.3669 128.485 83.1668 128.568 83.0448C128.653 82.9179 128.696 82.8398 128.696 82.8398Z" fill="#B9C6E0"/>
<path id="Vector_20" d="M109.615 81.8657C109.615 81.8657 109.656 81.9023 109.722 81.9706C109.783 82.0414 109.887 82.1414 109.987 82.2757C110.198 82.5417 110.453 82.9321 110.669 83.4227C110.888 83.9108 111.065 84.5014 111.155 85.1578C111.248 85.8143 111.243 86.5367 111.148 87.2786C111.048 88.0205 110.854 88.7819 110.565 89.5092C110.278 90.2365 109.904 90.9296 109.499 91.5275C109.295 91.8276 109.09 92.1034 108.889 92.3475C108.687 92.5915 108.495 92.8063 108.325 92.982C108.16 93.1577 108 93.2992 107.903 93.392C107.801 93.4872 107.737 93.5384 107.737 93.5384C107.737 93.5384 107.703 93.4945 107.652 93.4139C107.609 93.331 107.524 93.2138 107.453 93.0601C107.375 92.9063 107.3 92.7209 107.222 92.5037C107.147 92.2889 107.079 92.0448 107.021 91.7764C106.904 91.2444 106.841 90.6196 106.846 89.9485C106.848 89.2774 106.928 88.5599 107.06 87.8399C107.196 87.12 107.38 86.3976 107.618 85.7118C107.852 85.0261 108.126 84.3793 108.413 83.8131C108.694 83.247 108.986 82.7638 109.217 82.4196C109.326 82.2464 109.438 82.1073 109.501 82.0145C109.571 81.9169 109.615 81.8657 109.615 81.8657Z" fill="#B9C6E0"/>
<path id="Vector_21" d="M122.046 92.4014C122.046 92.4014 122.005 92.3647 121.922 92.3159C121.839 92.272 121.723 92.1866 121.565 92.1183C121.254 91.9694 120.805 91.8108 120.251 91.7107C119.699 91.6082 119.043 91.5692 118.327 91.6082C117.613 91.6448 116.838 91.7717 116.048 91.9572C115.256 92.1475 114.452 92.3965 113.672 92.7064C112.893 93.0115 112.142 93.3653 111.474 93.7265C111.139 93.9071 110.828 94.0853 110.544 94.2586C110.259 94.4318 110.007 94.5905 109.795 94.7344C109.584 94.8711 109.409 95.0078 109.293 95.0859C109.176 95.1713 109.11 95.225 109.11 95.225C109.11 95.225 109.144 95.2689 109.215 95.3324C109.288 95.3934 109.385 95.4983 109.523 95.5959C109.659 95.7009 109.832 95.8107 110.033 95.9254C110.235 96.0377 110.468 96.145 110.731 96.2427C111.255 96.4403 111.897 96.5819 112.621 96.6234C113.342 96.6697 114.149 96.6063 114.977 96.4452C115.808 96.2793 116.663 96.0157 117.481 95.6545C118.3 95.2958 119.082 94.8516 119.76 94.383C120.438 93.9169 121.009 93.4312 121.409 93.053C121.609 92.8675 121.771 92.6918 121.878 92.5844C121.985 92.4721 122.046 92.4014 122.046 92.4014Z" fill="#B9C6E0"/>
<path id="Vector_22" d="M103.205 88.1231C103.205 88.1231 103.239 88.1646 103.29 88.2476C103.336 88.3281 103.419 88.4477 103.492 88.5966C103.647 88.8992 103.819 89.3336 103.934 89.8583C104.05 90.3854 104.101 91.0053 104.05 91.6764C104.002 92.3476 103.844 93.0699 103.586 93.7948C103.324 94.5196 102.962 95.2468 102.51 95.9277C102.061 96.6062 101.526 97.2358 100.982 97.7654C100.708 98.0314 100.438 98.2706 100.178 98.4805C99.9182 98.6903 99.6753 98.8734 99.4615 99.0198C99.2526 99.1687 99.0583 99.2809 98.9368 99.359C98.8105 99.4371 98.7352 99.4762 98.7352 99.4762C98.7352 99.4762 98.7084 99.4274 98.6769 99.3371C98.6501 99.2468 98.5918 99.115 98.5554 98.949C98.5117 98.7831 98.4752 98.5805 98.4485 98.3536C98.4218 98.1242 98.4072 97.8704 98.4072 97.5921C98.4072 97.0382 98.485 96.4012 98.6429 95.7325C98.7959 95.0614 99.0388 94.3585 99.3328 93.6605C99.6315 92.9626 99.9789 92.2719 100.368 91.6276C100.754 90.9833 101.172 90.3805 101.582 89.8656C101.988 89.3482 102.384 88.9138 102.69 88.6088C102.838 88.455 102.979 88.3354 103.064 88.2525C103.151 88.167 103.205 88.1231 103.205 88.1231Z" fill="#B9C6E0"/>
<path id="Vector_23" d="M113.449 100.794C113.449 100.794 113.415 100.752 113.342 100.687C113.269 100.628 113.17 100.523 113.027 100.428C112.747 100.225 112.327 99.9885 111.793 99.7957C111.261 99.5981 110.609 99.4467 109.881 99.3638C109.154 99.2783 108.345 99.271 107.51 99.3198C106.672 99.3735 105.802 99.4858 104.947 99.6615C104.092 99.8323 103.254 100.059 102.494 100.306C102.115 100.43 101.755 100.555 101.43 100.679C101.102 100.804 100.81 100.921 100.56 101.028C100.315 101.131 100.106 101.236 99.9696 101.297C99.8311 101.36 99.751 101.404 99.751 101.404C99.751 101.404 99.7753 101.453 99.8336 101.531C99.8919 101.604 99.9696 101.726 100.089 101.848C100.205 101.975 100.353 102.117 100.533 102.263C100.713 102.409 100.927 102.556 101.172 102.7C101.66 102.988 102.282 103.237 103.009 103.403C103.732 103.571 104.563 103.647 105.44 103.627C106.32 103.603 107.243 103.486 108.151 103.264C109.057 103.046 109.941 102.734 110.726 102.383C111.508 102.034 112.186 101.646 112.672 101.336C112.912 101.184 113.112 101.035 113.243 100.948C113.374 100.852 113.449 100.794 113.449 100.794Z" fill="#B9C6E0"/>
<path id="Vector_24" d="M37.7104 1.4156C37.7104 1.4156 37.6376 1.41072 37.5064 1.41316C37.3776 1.41804 37.1809 1.41316 36.9452 1.43512C36.4691 1.47173 35.8059 1.56203 35.0505 1.75482C34.295 1.94518 33.4496 2.23804 32.597 2.63339C31.7443 3.02875 30.8868 3.53149 30.0876 4.10256C29.2908 4.67606 28.5499 5.31547 27.9232 5.98172C27.294 6.64552 26.7742 7.32885 26.3806 7.96094C26.1839 8.27576 26.0162 8.57593 25.8802 8.85171C25.7442 9.12748 25.6349 9.37397 25.5523 9.58629C25.4672 9.79373 25.4187 9.97432 25.3774 10.089C25.3409 10.2086 25.3264 10.2745 25.3264 10.2745C25.3264 10.2745 25.3944 10.2647 25.5158 10.233C25.6324 10.2013 25.8146 10.1647 26.0284 10.0963C26.2446 10.0329 26.4972 9.94992 26.7814 9.84742C27.0632 9.74492 27.3742 9.62045 27.707 9.47891C28.3677 9.19581 29.1013 8.8273 29.852 8.39534C30.605 7.96338 31.3702 7.46064 32.1208 6.92374C32.869 6.38195 33.6002 5.80844 34.2707 5.22029C34.9411 4.63458 35.5533 4.0391 36.0659 3.48512C36.5784 2.93357 36.9962 2.42595 37.278 2.04524C37.4214 1.85976 37.5258 1.69381 37.6011 1.58887C37.6716 1.47905 37.7104 1.4156 37.7104 1.4156Z" fill="#B9C6E0"/>
<path id="Vector_25" d="M34.8899 12.9639C34.8899 12.9639 34.8559 12.92 34.7903 12.8517C34.7223 12.7882 34.6275 12.6784 34.4964 12.5735C34.2389 12.3514 33.8575 12.0805 33.3716 11.8438C32.8882 11.6046 32.2955 11.4069 31.6348 11.2922C30.974 11.1751 30.238 11.1531 29.4825 11.2166C28.727 11.2873 27.9497 11.446 27.2039 11.6998C26.4606 11.9511 25.7512 12.2879 25.1391 12.654C24.833 12.8395 24.5512 13.025 24.301 13.208C24.0508 13.391 23.8322 13.5667 23.65 13.7254C23.4702 13.8767 23.3269 14.0255 23.2297 14.1134C23.1325 14.2061 23.0791 14.2672 23.0791 14.2672C23.0791 14.2672 23.1204 14.3038 23.1981 14.3575C23.2783 14.4063 23.3925 14.4966 23.5407 14.5747C23.6888 14.6601 23.871 14.7479 24.0799 14.8358C24.2888 14.9236 24.5269 15.0066 24.7893 15.0823C25.3115 15.2336 25.9261 15.3336 26.5893 15.3678C27.2525 15.4044 27.9691 15.3678 28.693 15.2751C29.4169 15.1799 30.1481 15.031 30.8501 14.826C31.5497 14.6235 32.2202 14.3745 32.8129 14.1085C33.4056 13.845 33.9182 13.5667 34.2899 13.3447C34.4745 13.2373 34.6251 13.1299 34.7271 13.0689C34.834 13.0054 34.8899 12.9639 34.8899 12.9639Z" fill="#B9C6E0"/>
<path id="Vector_26" d="M25.0212 0.000305176C25.0212 0.000305176 25.0552 0.0442336 25.0989 0.12965C25.1378 0.215066 25.2155 0.33709 25.2738 0.498161C25.4026 0.817862 25.5313 1.28155 25.592 1.8453C25.6576 2.40905 25.6479 3.07774 25.558 3.80011C25.4706 4.52249 25.2908 5.301 25.0552 6.08927C24.8147 6.87755 24.5159 7.67558 24.1661 8.43945C23.8187 9.20331 23.4301 9.93301 23.0414 10.5749C22.847 10.897 22.6551 11.1947 22.4754 11.4632C22.2932 11.7316 22.1256 11.9708 21.975 12.1709C21.8316 12.3686 21.6907 12.5321 21.6082 12.6419C21.5207 12.7518 21.4648 12.8128 21.4648 12.8128C21.4648 12.8128 21.4235 12.7762 21.3628 12.7029C21.3069 12.6297 21.2049 12.5248 21.1126 12.3832C21.0154 12.2417 20.911 12.0684 20.8065 11.8634C20.7045 11.6584 20.6049 11.4217 20.5174 11.1581C20.3425 10.631 20.2259 9.99158 20.2138 9.27409C20.1968 8.55903 20.294 7.76588 20.4931 6.94832C20.6972 6.13076 21.0057 5.29124 21.4138 4.48833C21.8195 3.68297 22.3126 2.91667 22.8349 2.25042C23.3499 1.58661 23.8843 1.02286 24.3046 0.627506C24.5086 0.429828 24.703 0.271197 24.8196 0.166257C24.9459 0.0588764 25.0212 0.000305176 25.0212 0.000305176Z" fill="#B9C6E0"/>
<path id="Vector_27" d="M28.2619 19.0696C28.2619 19.0696 28.2206 19.033 28.1429 18.9769C28.0651 18.9281 27.951 18.8378 27.8052 18.7548C27.5137 18.584 27.091 18.3839 26.5785 18.2374C26.0659 18.0861 25.4562 17.9934 24.7978 17.9934C24.1395 17.9885 23.4278 18.0886 22.7112 18.2789C21.997 18.4717 21.2779 18.7573 20.6099 19.1282C19.9419 19.4943 19.3224 19.9384 18.8026 20.3997C18.5427 20.6291 18.307 20.8585 18.0981 21.0781C17.8916 21.2978 17.7119 21.5052 17.5685 21.6883C17.4228 21.8664 17.311 22.0324 17.2357 22.1349C17.1604 22.2423 17.1191 22.3081 17.1191 22.3081C17.1191 22.3081 17.1653 22.3374 17.2527 22.3765C17.3402 22.4106 17.4665 22.479 17.6268 22.5302C17.7872 22.5888 17.9815 22.6425 18.2026 22.6937C18.4236 22.7425 18.6714 22.7816 18.9386 22.8109C19.4755 22.867 20.0901 22.8621 20.7411 22.784C21.3921 22.7084 22.0771 22.5522 22.7597 22.3423C23.4424 22.1276 24.1177 21.8615 24.7541 21.5467C25.3906 21.2343 25.9857 20.8805 26.5007 20.5266C27.0157 20.1727 27.453 19.8213 27.7639 19.5455C27.9194 19.4137 28.0433 19.282 28.1259 19.2063C28.2157 19.1209 28.2619 19.0696 28.2619 19.0696Z" fill="#B9C6E0"/>
<path id="Vector_28" d="M16.132 8.19037C16.132 8.19037 16.1733 8.22697 16.2341 8.30019C16.2899 8.37584 16.3895 8.48078 16.477 8.62721C16.6665 8.91519 16.8851 9.33983 17.06 9.87673C17.2373 10.4112 17.3661 11.0555 17.4268 11.7681C17.49 12.4807 17.4754 13.2617 17.4074 14.0621C17.3345 14.865 17.2057 15.685 17.0211 16.4831C16.8389 17.2787 16.6082 18.0499 16.3579 18.7381C16.2316 19.0822 16.1077 19.4043 15.9839 19.6947C15.86 19.9852 15.7434 20.2463 15.6365 20.4635C15.5344 20.6807 15.4324 20.8613 15.3717 20.9809C15.3085 21.1029 15.2672 21.1712 15.2672 21.1712C15.2672 21.1712 15.2211 21.1419 15.1458 21.0834C15.0753 21.0199 14.9587 20.9369 14.8421 20.8149C14.7182 20.6953 14.5846 20.544 14.4437 20.361C14.3028 20.1804 14.1619 19.9681 14.0259 19.7265C13.7514 19.2457 13.5158 18.6453 13.3627 17.9547C13.2073 17.264 13.1441 16.4806 13.1757 15.6582C13.2121 14.8333 13.3409 13.9694 13.5741 13.125C13.8049 12.2806 14.1279 11.4557 14.4923 10.726C14.8543 9.99876 15.2527 9.36667 15.5733 8.91519C15.7288 8.69066 15.8818 8.50763 15.9741 8.38561C16.0689 8.2587 16.132 8.19037 16.132 8.19037Z" fill="#B9C6E0"/>
<path id="Vector_29" d="M23.0803 26.0818C23.0803 26.0818 23.0341 26.0525 22.9467 26.0135C22.8617 25.9793 22.7329 25.911 22.575 25.8573C22.2568 25.7401 21.8098 25.6181 21.2803 25.562C20.7507 25.5034 20.1434 25.5156 19.5021 25.6279C18.8608 25.7352 18.1854 25.9549 17.5247 26.2599C16.864 26.5699 16.2202 26.9677 15.6372 27.4411C15.0542 27.9121 14.5319 28.449 14.1092 28.986C13.8979 29.2544 13.7084 29.518 13.5481 29.7669C13.3878 30.0183 13.2493 30.2477 13.1424 30.4502C13.0331 30.6479 12.9554 30.8309 12.8995 30.9432C12.8461 31.0604 12.8193 31.1311 12.8193 31.1311C12.8193 31.1311 12.8703 31.1506 12.9627 31.1751C13.0525 31.1946 13.191 31.2385 13.3586 31.2605C13.5262 31.2898 13.7254 31.3093 13.9513 31.319C14.1773 31.3288 14.425 31.3239 14.6947 31.3068C15.2291 31.2702 15.8315 31.158 16.4534 30.9701C17.0777 30.7846 17.719 30.5137 18.3458 30.1915C18.9701 29.867 19.5822 29.4911 20.1434 29.0763C20.7045 28.6638 21.2195 28.2196 21.6519 27.7877C22.0867 27.3582 22.4438 26.9408 22.694 26.6211C22.8179 26.4649 22.9151 26.3185 22.9807 26.2307C23.0463 26.1404 23.0803 26.0818 23.0803 26.0818Z" fill="#B9C6E0"/>
<path id="Vector_30" d="M9.18471 17.5933C9.18471 17.5933 9.23086 17.6226 9.30374 17.6836C9.37176 17.7471 9.48836 17.8325 9.60496 17.9594C9.84545 18.2059 10.1394 18.5817 10.4115 19.0698C10.6884 19.5579 10.9362 20.1607 11.1329 20.8416C11.3321 21.52 11.4657 22.2815 11.5532 23.0722C11.6358 23.8629 11.6674 24.6829 11.6358 25.4882C11.6066 26.2936 11.5265 27.0819 11.4099 27.792C11.3516 28.1483 11.2884 28.4827 11.2228 28.7853C11.1548 29.0904 11.0892 29.3613 11.026 29.5931C10.9677 29.8225 10.8997 30.0153 10.8633 30.1422C10.8244 30.2716 10.7953 30.3448 10.7953 30.3448C10.7953 30.3448 10.7443 30.3252 10.6592 30.2789C10.5791 30.2301 10.4479 30.1691 10.3119 30.069C10.1685 29.9738 10.0106 29.8494 9.83816 29.698C9.66812 29.5467 9.49079 29.3637 9.31103 29.1538C8.95393 28.7341 8.61142 28.1898 8.33449 27.5431C8.05513 26.8988 7.84622 26.1472 7.72476 25.3418C7.60572 24.534 7.57172 23.6725 7.6373 22.811C7.70289 21.952 7.86079 21.0954 8.07699 20.3266C8.29076 19.5579 8.55797 18.8794 8.78146 18.3865C8.88834 18.1424 9.00252 17.9374 9.06811 17.8056C9.13855 17.669 9.18471 17.5933 9.18471 17.5933Z" fill="#B9C6E0"/>
<path id="Vector_31" d="M19.3484 33.7787C19.3484 33.7787 19.2974 33.7591 19.2051 33.7347C19.1152 33.7152 18.9768 33.6713 18.8116 33.6469C18.4788 33.5883 18.0172 33.5468 17.4901 33.5834C16.963 33.6176 16.3678 33.7347 15.7581 33.9544C15.1484 34.1716 14.5265 34.501 13.9338 34.911C13.3435 35.3284 12.7799 35.8287 12.294 36.3924C11.8058 36.9537 11.3904 37.5687 11.0673 38.1666C10.907 38.4668 10.7685 38.7548 10.6543 39.0281C10.5402 39.3014 10.4454 39.5504 10.375 39.7676C10.3021 39.9799 10.2584 40.1727 10.2219 40.2923C10.1879 40.4167 10.1758 40.49 10.1758 40.49C10.1758 40.49 10.2292 40.4997 10.324 40.507C10.4163 40.5095 10.5596 40.5266 10.7272 40.5192C10.8973 40.5168 11.0964 40.5022 11.3199 40.4729C11.5434 40.4436 11.7888 40.3948 12.0487 40.3313C12.5685 40.202 13.1418 39.9872 13.72 39.6944C14.3006 39.4039 14.8811 39.0281 15.4423 38.6059C15.9986 38.1788 16.533 37.7078 17.0091 37.2051C17.4853 36.7048 17.9104 36.1825 18.2577 35.6847C18.6075 35.1917 18.882 34.7231 19.0667 34.3693C19.1614 34.196 19.227 34.0374 19.2756 33.9397C19.3266 33.8397 19.3484 33.7787 19.3484 33.7787Z" fill="#B9C6E0"/>
<path id="Vector_32" d="M4.18058 27.9143C4.18058 27.9143 4.23159 27.9338 4.31419 27.9826C4.39192 28.0339 4.5231 28.0949 4.65913 28.1974C4.93849 28.3951 5.29801 28.7099 5.65268 29.1394C6.0122 29.5665 6.36686 30.1107 6.68266 30.7404C7.00088 31.3676 7.27295 32.0851 7.49887 32.8392C7.72236 33.5957 7.89969 34.3889 8.01386 35.182C8.13046 35.9727 8.19119 36.7561 8.20091 37.4712C8.20577 37.8299 8.20334 38.1667 8.19119 38.4742C8.17905 38.7842 8.16204 39.0624 8.14018 39.2991C8.12318 39.5334 8.08917 39.7335 8.07702 39.8653C8.06002 39.9971 8.04544 40.0752 8.04544 40.0752C8.04544 40.0752 7.992 40.0654 7.89969 40.0337C7.81224 39.9995 7.67377 39.9629 7.52073 39.8897C7.36283 39.8214 7.1855 39.7286 6.98874 39.609C6.7944 39.4895 6.58792 39.343 6.37658 39.1673C5.95147 38.8183 5.51907 38.3473 5.13283 37.764C4.74415 37.1832 4.4065 36.4852 4.14171 35.7189C3.88179 34.9502 3.69231 34.118 3.60486 33.2638C3.51498 32.4145 3.51498 31.553 3.58785 30.7648C3.6583 29.9789 3.79434 29.2712 3.92551 28.7538C3.98624 28.4976 4.05912 28.2779 4.10042 28.1388C4.149 27.9973 4.18058 27.9143 4.18058 27.9143Z" fill="#B9C6E0"/>
<path id="Vector_33" d="M17.0654 41.9374C17.0654 41.9374 17.012 41.9276 16.9173 41.9203C16.825 41.9178 16.6816 41.8983 16.5164 41.9032C16.1788 41.9032 15.7172 41.9447 15.2071 42.0716C14.6921 42.1985 14.1285 42.4157 13.5674 42.7378C13.0062 43.0575 12.4524 43.4871 11.9398 43.9947C11.4297 44.5072 10.9633 45.0953 10.5819 45.7347C10.1981 46.3717 9.89444 47.0477 9.68067 47.6895C9.57379 48.0117 9.48633 48.3192 9.42075 48.6072C9.35516 48.8951 9.30657 49.1563 9.27499 49.3832C9.23856 49.6053 9.22884 49.8005 9.21426 49.925C9.20212 50.0544 9.20212 50.1276 9.20212 50.1276C9.20212 50.1276 9.25799 50.1276 9.35273 50.1178C9.44504 50.1032 9.58836 50.0958 9.75355 50.0592C9.92116 50.0275 10.1155 49.9763 10.3293 49.9104C10.543 49.842 10.7762 49.7517 11.0216 49.6419C11.5123 49.4247 12.0394 49.1123 12.5568 48.7219C13.0791 48.3338 13.5868 47.8628 14.063 47.3503C14.5366 46.8329 14.9812 46.2765 15.3626 45.7006C15.7464 45.127 16.0719 44.5413 16.327 43.9947C16.5845 43.4504 16.7715 42.9428 16.893 42.5646C16.9561 42.3791 16.9926 42.2107 17.0241 42.1082C17.0557 42.0008 17.0654 41.9374 17.0654 41.9374Z" fill="#B9C6E0"/>
<path id="Vector_34" d="M1.11762 38.855C1.11762 38.855 1.17107 38.8647 1.26095 38.8965C1.34597 38.9331 1.48686 38.9697 1.63747 39.0478C1.94841 39.1918 2.35652 39.4383 2.78163 39.7946C3.2116 40.1484 3.65371 40.6194 4.07396 41.1807C4.49665 41.7396 4.88775 42.3961 5.24484 43.0941C5.59708 43.7969 5.90801 44.5413 6.15822 45.2978C6.41086 46.0519 6.60277 46.8109 6.7388 47.5089C6.80682 47.8603 6.86026 48.1898 6.90156 48.4948C6.94285 48.7999 6.97443 49.0757 6.99387 49.3124C7.01573 49.5442 7.01816 49.7492 7.02788 49.8786C7.03516 50.0128 7.03273 50.0909 7.03273 50.0909C7.03273 50.0909 6.97686 50.0909 6.88455 50.0763C6.79224 50.0592 6.64892 50.047 6.48616 50.003C6.32098 49.964 6.12664 49.903 5.9153 49.82C5.70396 49.737 5.47562 49.6272 5.23512 49.4954C4.75657 49.227 4.2513 48.8414 3.76789 48.3362C3.28447 47.8359 2.83264 47.2087 2.44154 46.5034C2.05287 45.7957 1.7225 45.0123 1.48929 44.1923C1.25123 43.3747 1.10305 42.5328 1.03746 41.7469C0.969443 40.966 0.981589 40.2485 1.01803 39.7189C1.0326 39.4578 1.06661 39.2308 1.08119 39.0868C1.10305 38.9404 1.11762 38.855 1.11762 38.855Z" fill="#B9C6E0"/>
<path id="Vector_35" d="M16.2315 50.3323C16.2315 50.3323 16.1756 50.3323 16.0833 50.3421C15.991 50.3543 15.8477 50.3616 15.6849 50.3958C15.3521 50.4568 14.9052 50.5764 14.4242 50.7936C13.9383 51.0083 13.4209 51.3232 12.9254 51.738C12.4274 52.1505 11.9537 52.6727 11.5383 53.2609C11.1229 53.8539 10.7658 54.5153 10.4986 55.2133C10.2289 55.9064 10.0467 56.6287 9.94472 57.2999C9.89371 57.6367 9.86213 57.9564 9.84512 58.2517C9.82812 58.5469 9.82569 58.813 9.83298 59.0424C9.8354 59.2669 9.85727 59.4621 9.86698 59.5866C9.8767 59.7159 9.88885 59.7891 9.88885 59.7891C9.88885 59.7891 9.94229 59.7794 10.0346 59.7525C10.1221 59.7233 10.2629 59.6891 10.4184 59.6256C10.5787 59.5646 10.7609 59.4816 10.9601 59.3767C11.1593 59.2718 11.3731 59.1424 11.5966 58.9911C12.0411 58.6885 12.5075 58.2883 12.9521 57.8148C13.399 57.3414 13.8193 56.7874 14.2031 56.1968C14.5821 55.6037 14.9246 54.9765 15.2015 54.3445C15.4809 53.7124 15.7019 53.0779 15.8598 52.4946C16.0202 51.9138 16.1173 51.3817 16.1708 50.9888C16.1999 50.796 16.2072 50.6252 16.2218 50.5154C16.2315 50.3982 16.2315 50.3323 16.2315 50.3323Z" fill="#B9C6E0"/>
<path id="Vector_36" d="M0 50.1152C0 50.1152 0.0558717 50.1152 0.148181 50.1323C0.238062 50.1518 0.383814 50.1664 0.544142 50.2128C0.874513 50.3006 1.31663 50.469 1.79761 50.7448C2.28102 51.0181 2.79844 51.4013 3.30858 51.8796C3.82114 52.3531 4.31912 52.929 4.78796 53.5538C5.25437 54.1834 5.68919 54.8619 6.06329 55.5623C6.43982 56.2603 6.76047 56.9729 7.01311 57.6391C7.13943 57.9735 7.25117 58.2883 7.34348 58.5836C7.43579 58.8789 7.51353 59.1449 7.57183 59.3743C7.63499 59.5988 7.67142 59.8014 7.703 59.9259C7.73215 60.0576 7.7443 60.1333 7.7443 60.1333C7.7443 60.1333 7.69086 60.1431 7.59612 60.1455C7.50381 60.1431 7.36049 60.1577 7.19287 60.1431C7.02283 60.1333 6.82363 60.1064 6.60015 60.065C6.37666 60.021 6.13374 59.9551 5.87624 59.8648C5.35882 59.6842 4.79525 59.3938 4.2341 58.9814C3.67296 58.5714 3.12153 58.0345 2.61382 57.4097C2.11098 56.7801 1.65186 56.0675 1.28019 55.3012C0.906093 54.5397 0.617018 53.7344 0.417823 52.9754C0.216199 52.2189 0.104456 51.5111 0.0510133 50.9864C0.0218628 50.7277 0.0170044 50.4983 0.00485841 50.3519C0 50.203 0 50.1152 0 50.1152Z" fill="#B9C6E0"/>
<path id="Vector_37" d="M16.8473 58.7469C16.8473 58.7469 16.7939 58.7566 16.7016 58.7811C16.6141 58.8103 16.4732 58.8421 16.3177 58.9031C16.0019 59.0202 15.5817 59.2179 15.1444 59.5181C14.7047 59.8158 14.2481 60.216 13.8302 60.7139C13.41 61.2093 13.0359 61.8072 12.7249 62.4637C12.4189 63.1226 12.1808 63.8401 12.0375 64.5772C11.8917 65.3117 11.8359 66.0561 11.8553 66.737C11.865 67.0786 11.8893 67.4008 11.9233 67.6961C11.9597 67.9914 12.0035 68.2549 12.0496 68.4819C12.0909 68.704 12.1492 68.8919 12.1784 69.0164C12.2124 69.1408 12.2367 69.2116 12.2367 69.2116C12.2367 69.2116 12.2877 69.1945 12.3751 69.1506C12.4553 69.1042 12.5889 69.0481 12.7298 68.9554C12.8756 68.8675 13.0407 68.7528 13.2205 68.6137C13.3978 68.4746 13.5873 68.3086 13.7792 68.1207C14.1655 67.7425 14.5541 67.2641 14.9088 66.715C15.2659 66.1684 15.5841 65.5436 15.8586 64.8944C16.1283 64.2404 16.3566 63.5619 16.5218 62.8859C16.687 62.2124 16.7963 61.5461 16.8522 60.9409C16.9105 60.3381 16.9153 59.7987 16.9007 59.3985C16.8959 59.2033 16.8765 59.0324 16.8692 58.9226C16.857 58.8103 16.8473 58.7469 16.8473 58.7469Z" fill="#B9C6E0"/>
<path id="Vector_38" d="M0.824219 61.3978C0.824219 61.3978 0.877661 61.388 0.9724 61.388C1.06471 61.3929 1.21046 61.3782 1.37808 61.3978C1.71817 61.4271 2.18457 61.5149 2.70442 61.7028C3.2267 61.8883 3.80242 62.1738 4.38786 62.5546C4.9733 62.9328 5.56359 63.4136 6.13203 63.9481C6.70046 64.4874 7.2446 65.0804 7.7353 65.7076C8.226 66.3324 8.66812 66.9791 9.0325 67.5941C9.21469 67.9016 9.37987 68.1945 9.5232 68.4702C9.66652 68.746 9.78798 68.9949 9.88758 69.2121C9.98717 69.4245 10.06 69.6173 10.1135 69.7368C10.1645 69.8613 10.1912 69.9345 10.1912 69.9345C10.1912 69.9345 10.1402 69.954 10.0455 69.9736C9.95316 69.9882 9.8147 70.0273 9.64708 70.0419C9.47704 70.0614 9.27542 70.0712 9.0495 70.0687C8.82116 70.0639 8.57095 70.0419 8.30131 69.998C7.76202 69.9101 7.15229 69.7222 6.52799 69.4123C5.90368 69.1072 5.2648 68.6728 4.65993 68.1432C4.05506 67.6112 3.47934 66.984 2.98135 66.2933C2.48094 65.6051 2.05825 64.8632 1.73031 64.1482C1.40237 63.438 1.17159 62.7596 1.02827 62.2495C0.955396 62.0006 0.909241 61.7736 0.875232 61.6321C0.838794 61.4856 0.824219 61.3978 0.824219 61.3978Z" fill="#B9C6E0"/>
<path id="Vector_39" d="M18.9112 66.9547C18.9112 66.9547 18.8602 66.9742 18.7752 67.0157C18.695 67.0596 18.5614 67.1157 18.4181 67.2036C18.1266 67.3768 17.7476 67.6453 17.3687 68.0187C16.9873 68.3896 16.6083 68.868 16.2853 69.4342C15.9597 70.0004 15.695 70.6593 15.5079 71.3621C15.3233 72.0699 15.2188 72.824 15.2091 73.5781C15.197 74.3322 15.2796 75.079 15.4205 75.755C15.4909 76.0918 15.5735 76.4066 15.6634 76.6946C15.7533 76.9825 15.8456 77.2363 15.933 77.4511C16.0156 77.6634 16.1055 77.8416 16.1589 77.9587C16.2148 78.0783 16.2537 78.1442 16.2537 78.1442C16.2537 78.1442 16.3023 78.1174 16.3776 78.0588C16.448 78.0002 16.5695 77.9197 16.6934 77.8025C16.8221 77.6878 16.963 77.5463 17.1136 77.3754C17.2642 77.2046 17.4173 77.0069 17.5752 76.7873C17.8861 76.3456 18.1825 75.8013 18.4327 75.1937C18.6853 74.5884 18.8845 73.9124 19.0376 73.2193C19.1857 72.5238 19.2878 71.8087 19.3291 71.1083C19.3704 70.4104 19.3606 69.7319 19.3072 69.1218C19.2562 68.5141 19.1663 67.9772 19.0813 67.5867C19.0424 67.3939 18.9914 67.228 18.9671 67.123C18.9307 67.0157 18.9112 66.9547 18.9112 66.9547Z" fill="#B9C6E0"/>
<path id="Vector_40" d="M3.59293 72.4066C3.59293 72.4066 3.64394 72.3895 3.73868 72.37C3.83099 72.3578 3.96945 72.3188 4.1395 72.309C4.47959 72.2773 4.95328 72.2822 5.49985 72.3773C6.04642 72.4676 6.66587 72.6507 7.30718 72.9264C7.95092 73.1973 8.61652 73.5707 9.27483 74.0002C9.93072 74.4347 10.5745 74.9276 11.172 75.4621C11.7696 75.9941 12.3211 76.5603 12.7923 77.107C13.028 77.3803 13.2442 77.6439 13.4361 77.8904C13.628 78.1393 13.7956 78.3662 13.9316 78.5639C14.0701 78.7567 14.177 78.9349 14.2498 79.0447C14.3227 79.1594 14.364 79.2277 14.364 79.2277C14.364 79.2277 14.3154 79.2546 14.228 79.2912C14.1405 79.3229 14.0093 79.3839 13.8466 79.4278C13.6838 79.4791 13.4871 79.523 13.2612 79.5596C13.0352 79.5938 12.7826 79.6158 12.5081 79.6206C11.9591 79.628 11.3226 79.5474 10.6522 79.3498C9.9793 79.157 9.2724 78.8373 8.57765 78.4199C7.8829 77.9977 7.20272 77.4779 6.58813 76.88C5.97112 76.2845 5.42212 75.6232 4.97271 74.9716C4.52331 74.3248 4.17593 73.6927 3.94516 73.212C3.82856 72.9777 3.74597 72.7629 3.68524 72.6287C3.61965 72.4872 3.59293 72.4066 3.59293 72.4066Z" fill="#B9C6E0"/>
<path id="Vector_41" d="M22.4244 74.7348C22.4244 74.7348 22.3758 74.7616 22.3005 74.8202C22.2276 74.8788 22.1062 74.9569 21.9847 75.0716C21.7296 75.2937 21.4041 75.628 21.1005 76.0673C20.792 76.5041 20.5078 77.0459 20.294 77.6658C20.0778 78.2857 19.9393 78.9861 19.8859 79.7207C19.8373 80.4553 19.8737 81.2264 20.0098 81.9781C20.1409 82.7298 20.3669 83.4619 20.6365 84.1086C20.7725 84.4332 20.9159 84.731 21.0592 85.0018C21.2049 85.2727 21.3434 85.5095 21.4746 85.7096C21.5985 85.9073 21.7248 86.0683 21.7977 86.1757C21.8778 86.2831 21.9264 86.3441 21.9264 86.3441C21.9264 86.3441 21.9677 86.3075 22.0333 86.2392C22.0916 86.1684 22.1961 86.0659 22.2957 85.9292C22.4001 85.7926 22.5119 85.6266 22.6285 85.4314C22.7451 85.2361 22.8592 85.0116 22.971 84.7651C23.192 84.2697 23.3791 83.6767 23.5103 83.0275C23.6414 82.3783 23.7094 81.6731 23.7265 80.9556C23.7386 80.2356 23.7046 79.5059 23.6099 78.8031C23.52 78.1002 23.3791 77.4266 23.2115 76.8312C23.0487 76.2357 22.8592 75.7183 22.7013 75.3425C22.6285 75.157 22.5459 75.0033 22.5021 74.9008C22.456 74.7934 22.4244 74.7348 22.4244 74.7348Z" fill="#B9C6E0"/>
<path id="Vector_42" d="M8.30273 82.8398C8.30273 82.8398 8.35132 82.8129 8.43877 82.7787C8.52622 82.7495 8.6574 82.6884 8.82258 82.647C9.15295 82.5567 9.62179 82.4761 10.1781 82.4761C10.7344 82.4688 11.3805 82.5445 12.068 82.7031C12.7555 82.8593 13.4842 83.1131 14.213 83.4255C14.9417 83.7427 15.6729 84.121 16.3677 84.5481C17.06 84.9727 17.7159 85.4413 18.2892 85.9025C18.5758 86.1344 18.8406 86.3589 19.0787 86.5712C19.3167 86.786 19.5281 86.9812 19.703 87.157C19.8779 87.3253 20.0188 87.484 20.1135 87.5816C20.2083 87.6817 20.2617 87.7451 20.2617 87.7451C20.2617 87.7451 20.2204 87.7817 20.1378 87.833C20.0576 87.8793 19.9386 87.9647 19.7856 88.038C19.6325 88.1161 19.4455 88.1966 19.2293 88.2698C19.0131 88.343 18.7653 88.4089 18.4932 88.4626C17.9491 88.5651 17.3029 88.5968 16.5985 88.5163C15.894 88.4406 15.1288 88.2454 14.3612 87.9501C13.5911 87.6499 12.8186 87.2521 12.0971 86.764C11.3757 86.2808 10.7052 85.7171 10.1392 85.1484C9.57321 84.5847 9.11166 84.0161 8.79586 83.5792C8.63796 83.3669 8.51407 83.1668 8.43148 83.0448C8.34646 82.9179 8.30273 82.8398 8.30273 82.8398Z" fill="#B9C6E0"/>
<path id="Vector_43" d="M27.3849 81.8657C27.3849 81.8657 27.3437 81.9023 27.2781 81.9706C27.2173 82.0414 27.1129 82.1414 27.0133 82.2757C26.8044 82.5417 26.5469 82.9321 26.3307 83.4227C26.112 83.9108 25.9347 84.5014 25.8448 85.1578C25.7525 85.8143 25.7574 86.5367 25.8521 87.2786C25.9517 88.0205 26.1461 88.7819 26.4351 89.5092C26.7218 90.2365 27.0959 90.9296 27.5015 91.5275C27.7056 91.8276 27.9097 92.1034 28.1113 92.3475C28.3129 92.5915 28.5048 92.8063 28.6749 92.982C28.84 93.1577 29.0004 93.2992 29.0975 93.392C29.1996 93.4872 29.2627 93.5384 29.2627 93.5384C29.2627 93.5384 29.2967 93.4945 29.3477 93.4139C29.3915 93.331 29.4765 93.2138 29.5469 93.0601C29.6222 92.9063 29.7 92.7209 29.7777 92.5037C29.853 92.2889 29.921 92.0448 29.9793 91.7764C30.0959 91.2444 30.1591 90.6196 30.1542 89.9485C30.1518 89.2774 30.0716 88.5599 29.9405 87.8399C29.8044 87.12 29.6198 86.3976 29.3842 85.7118C29.151 85.0261 28.8765 84.3793 28.5898 83.8131C28.308 83.247 28.0165 82.7638 27.7858 82.4196C27.6765 82.2464 27.5647 82.1073 27.4991 82.0145C27.4287 81.9169 27.3849 81.8657 27.3849 81.8657Z" fill="#B9C6E0"/>
<path id="Vector_44" d="M14.9569 92.4013C14.9569 92.4013 14.9982 92.3647 15.0808 92.3159C15.1634 92.2719 15.28 92.1865 15.4379 92.1182C15.7488 91.9693 16.1982 91.8107 16.7521 91.7106C17.3035 91.6081 17.9594 91.5691 18.676 91.6081C19.3902 91.6447 20.1651 91.7717 20.957 91.9571C21.7489 92.1475 22.553 92.3964 23.3328 92.7064C24.1101 93.0114 24.8632 93.3653 25.5312 93.7265C25.8664 93.9071 26.1774 94.0852 26.4616 94.2585C26.7458 94.4318 26.996 94.5904 27.2098 94.7344C27.4211 94.8711 27.596 95.0077 27.7126 95.0858C27.8317 95.1712 27.8972 95.2249 27.8972 95.2249C27.8972 95.2249 27.8632 95.2689 27.7928 95.3323C27.7223 95.3933 27.6227 95.4983 27.4843 95.5959C27.3482 95.7008 27.1758 95.8106 26.9741 95.9253C26.7725 96.0376 26.5393 96.145 26.277 96.2426C25.7523 96.4403 25.1109 96.5818 24.3895 96.6233C23.668 96.6697 22.8615 96.6062 22.0331 96.4452C21.2024 96.2792 20.3473 96.0156 19.5286 95.6544C18.71 95.2957 17.9278 94.8515 17.25 94.383C16.5723 93.9168 16.0014 93.4312 15.6006 93.0529C15.4014 92.8674 15.2387 92.6917 15.1318 92.5843C15.0152 92.4721 14.9569 92.4013 14.9569 92.4013Z" fill="#B9C6E0"/>
<path id="Vector_45" d="M33.795 88.123C33.795 88.123 33.761 88.1645 33.71 88.2475C33.6638 88.328 33.5812 88.4476 33.5084 88.5965C33.3529 88.8991 33.1804 89.3335 33.0662 89.8582C32.9496 90.3854 32.8986 91.0052 32.9496 91.6764C32.9958 92.3475 33.1561 93.0699 33.4136 93.7947C33.676 94.5195 34.0355 95.2468 34.4898 95.9277C34.9392 96.6061 35.4712 97.2358 36.0177 97.7654C36.2922 98.0314 36.5619 98.2705 36.8218 98.4804C37.0817 98.6903 37.3246 98.8733 37.5384 99.0197C37.7473 99.1686 37.9416 99.2809 38.0631 99.359C38.1894 99.4371 38.2647 99.4761 38.2647 99.4761C38.2647 99.4761 38.2915 99.4273 38.323 99.337C38.3498 99.2467 38.4081 99.1149 38.4445 98.949C38.4882 98.783 38.5247 98.5805 38.5514 98.3535C38.5781 98.1241 38.5927 97.8703 38.5927 97.5921C38.5927 97.0381 38.5149 96.4011 38.357 95.7324C38.204 95.0613 37.9611 94.3585 37.6671 93.6605C37.3684 92.9625 37.021 92.2719 36.6323 91.6276C36.2461 90.9833 35.8282 90.3805 35.4177 89.8655C35.0096 89.3482 34.6161 88.9138 34.31 88.6087C34.1618 88.4549 34.0209 88.3354 33.9359 88.2524C33.8484 88.167 33.795 88.123 33.795 88.123Z" fill="#B9C6E0"/>
<path id="Vector_46" d="M23.5508 100.794C23.5508 100.794 23.5848 100.752 23.6577 100.687C23.7305 100.628 23.8301 100.523 23.9735 100.428C24.2528 100.225 24.6706 99.9885 25.2075 99.7957C25.7395 99.5981 26.3905 99.4467 27.1193 99.3638C27.8456 99.2783 28.6545 99.271 29.4902 99.3198C30.3283 99.3735 31.1979 99.4858 32.053 99.6615C32.9081 99.8323 33.7461 100.059 34.5065 100.306C34.8879 100.43 35.245 100.555 35.5705 100.679C35.896 100.804 36.1899 100.921 36.4401 101.028C36.6855 101.131 36.8944 101.236 37.0304 101.297C37.1689 101.36 37.2491 101.404 37.2491 101.404C37.2491 101.404 37.2223 101.453 37.1665 101.531C37.1082 101.604 37.0304 101.726 36.9114 101.848C36.7972 101.975 36.6466 102.117 36.4669 102.263C36.2871 102.409 36.0733 102.556 35.828 102.7C35.3397 102.988 34.7178 103.237 33.9915 103.403C33.2676 103.571 32.4368 103.647 31.5574 103.627C30.6781 103.603 29.755 103.486 28.8464 103.264C27.9404 103.046 27.0561 102.734 26.2715 102.383C25.4893 102.034 24.8115 101.646 24.3257 101.336C24.0852 101.184 23.886 101.035 23.7548 100.948C23.6261 100.852 23.5508 100.794 23.5508 100.794Z" fill="#B9C6E0"/>
<path id="Vector_47" d="M68.582 84.0667L71.9124 91.0245L79.5085 92.2106L73.9505 97.5454L75.1724 105.167L68.4071 101.506L61.5689 105.03L62.9438 97.4332L57.4951 91.9885L65.1107 90.9562L68.582 84.0667Z" fill="#B9C6E0"/>
<path id="Vector_48" d="M86.7874 94.1175L88.8717 98.359L93.5285 99.0375L90.1592 102.339L90.9535 107.001L86.7874 104.799L82.6214 107.001L83.4181 102.339L80.0488 99.0375L84.7056 98.359L86.7874 94.1175Z" fill="#B9C6E0"/>
<path id="Vector_49" d="M50.2117 94.1175L52.2936 98.359L56.9528 99.0375L53.581 102.339L54.3778 107.001L50.2117 104.799L46.0457 107.001L46.84 102.339L43.4707 99.0375L48.1275 98.359L50.2117 94.1175Z" fill="#B9C6E0"/>
</g>
</g>
</svg>
