<svg width="10" height="18" viewBox="0 0 10 18" fill="none" xmlns="http://www.w3.org/2000/svg">
<path id="Vector" d="M9.76534 16.6118L2.01316 8.99997L9.76534 1.38813C9.9173 1.23365 10.0014 1.02674 9.99948 0.81198C9.99758 0.597215 9.90985 0.391775 9.75518 0.239908C9.60052 0.0880406 9.39129 0.00189721 9.17257 3.0964e-05C8.95384 -0.00183528 8.74313 0.080725 8.58579 0.22993L0.243869 8.4209C0.1664 8.49694 0.104948 8.58722 0.0630207 8.68658C0.0210924 8.78594 -0.000488281 8.89245 -0.000488281 9C-0.000488281 9.10756 0.0210924 9.21406 0.0630207 9.31342C0.104948 9.41278 0.1664 9.50307 0.243869 9.5791L8.58579 17.7701C8.74313 17.9193 8.95384 18.0018 9.17257 18C9.39129 17.9981 9.60052 17.912 9.75518 17.7601C9.90985 17.6082 9.99758 17.4028 9.99948 17.188C10.0014 16.9733 9.9173 16.7664 9.76534 16.6119V16.6118Z" fill="#B9C6E0"/>
</svg>
