<svg width="72" height="72" viewBox="0 0 72 72" fill="none" xmlns="http://www.w3.org/2000/svg">
<rect width="72" height="72" rx="36" fill="white"/>
<path d="M31.2709 32.2685V34.252L30.3893 34.4724C29.1992 34.4724 28.1192 33.7671 27.5242 32.4888L25.4304 28.0369C25.21 27.4859 24.7913 27.0671 24.2844 27.0671H19.5018V34.4063H17.2979V18.2073H19.5018V25.0836H23.8877C24.3284 25.0836 24.7692 24.753 24.9896 24.202L26.863 20.1908C27.458 18.9125 28.538 18.2073 29.7281 18.2073L30.3893 18.4277V20.4112H29.7281C29.3755 20.4112 29.0449 20.7198 28.8024 21.2708L26.9732 25.2819C26.8409 25.5464 26.5985 25.7889 26.4222 25.877C26.7307 26.0533 27.2156 26.5162 27.414 26.9569L29.4636 31.4089C29.7061 31.9599 30.0367 32.2685 30.3893 32.2685H31.2709Z" fill="#212224"/>
<path d="M40.3354 53.9027V37.7037H53.9999V53.9027H51.796V39.6873H42.5394V53.9027H40.3354Z" fill="#212224"/>
<path d="M38.9001 34.725V34.2028H39.9682L40.0869 34.725C40.0869 35.4726 39.6359 36.0898 38.9951 36.3627C39.185 36.7425 39.2799 37.1578 39.2799 37.6919C39.2799 39.733 37.1794 40.5638 35.4586 40.5638C33.809 40.5638 31.7085 39.6974 31.7085 37.8224C31.7085 36.8374 32.4324 36.1847 33.1682 35.7931C32.7647 35.4964 32.3375 35.0454 32.3375 34.2028C32.3375 32.4702 33.9633 31.77 35.3399 31.77C36.8352 31.77 38.0932 32.5889 38.0932 34.2028H36.9183C36.9183 33.2653 36.2062 32.8737 35.3399 32.8737C34.4736 32.8737 33.5242 33.2653 33.5242 34.2028C33.5242 34.7131 33.9396 35.4014 34.6635 35.4014V36.3746C33.8209 36.3746 32.8952 36.8967 32.8952 37.8224C32.8952 38.9735 34.4024 39.4601 35.4586 39.4601C36.7996 39.4601 38.0932 38.7837 38.0932 37.6919C38.0932 37.3714 38.0576 36.8137 37.6185 36.3627H37.0014C36.6691 36.3627 36.408 36.7662 36.408 37.0985V37.6206H35.3993L35.2806 37.0985C35.2806 36.1135 36.0164 35.4014 37.0014 35.4014H38.3068C38.6391 35.4014 38.9001 35.0454 38.9001 34.725Z" fill="#383E43" fill-opacity="0.5"/>
<circle cx="36" cy="36" r="31.5" stroke="#212224" stroke-opacity="0.12" stroke-dasharray="2 2"/>
</svg>
