<svg width="60" height="60" viewBox="0 0 60 60" fill="none" xmlns="http://www.w3.org/2000/svg">
<circle opacity="0.2" cx="30" cy="30" r="19.5" stroke="#447BE2"/>
<circle opacity="0.1" cx="30" cy="30" r="29.75" stroke="#447BE2" stroke-width="0.5"/>
<path d="M35.7472 33.3371L34.306 32.3762L33.0249 31.5223C32.7776 31.3578 32.4453 31.4117 32.2628 31.646L31.47 32.6651C31.2997 32.8863 30.9934 32.9498 30.7492 32.8146C30.2113 32.5154 29.5752 32.2337 28.1716 30.8283C26.7681 29.423 26.4846 28.7887 26.1854 28.2508C26.0502 28.0066 26.1137 27.7003 26.3349 27.53L27.354 26.7372C27.5883 26.5547 27.6422 26.2224 27.4777 25.9752L26.65 24.7334L25.6629 23.2528C25.4949 23.0008 25.1586 22.9251 24.8988 23.0809L23.7604 23.7638C23.4528 23.9451 23.2266 24.2378 23.1288 24.5812C22.8175 25.7163 22.7547 28.2201 26.7674 32.2328C30.7801 36.2454 33.2837 36.1825 34.4187 35.8711C34.7622 35.7734 35.0549 35.5472 35.2362 35.2395L35.9191 34.1012C36.0749 33.8414 35.9992 33.5051 35.7472 33.3371Z" fill="#447BE2"/>
<path d="M30.396 25.0171C32.4994 25.0194 34.204 26.724 34.2063 28.8274C34.2063 28.9512 34.3066 29.0516 34.4304 29.0516C34.5542 29.0516 34.6546 28.9512 34.6546 28.8274C34.652 26.4765 32.7469 24.5714 30.396 24.5688C30.2722 24.5688 30.1719 24.6692 30.1719 24.793C30.1718 24.9167 30.2722 25.0171 30.396 25.0171Z" fill="#447BE2"/>
<path d="M30.396 26.3619C31.757 26.3635 32.8599 27.4664 32.8615 28.8273C32.8615 28.9511 32.9618 29.0515 33.0856 29.0515C33.2094 29.0515 33.3098 28.9511 33.3098 28.8273C33.3079 27.2189 32.0045 25.9154 30.396 25.9136C30.2722 25.9136 30.1719 26.0139 30.1719 26.1377C30.1719 26.2615 30.2722 26.3619 30.396 26.3619Z" fill="#447BE2"/>
<path d="M30.396 27.7071C31.0146 27.7078 31.5159 28.2091 31.5167 28.8277C31.5167 28.9515 31.617 29.0519 31.7408 29.0519C31.8646 29.0519 31.965 28.9515 31.965 28.8277C31.964 27.9616 31.2621 27.2598 30.396 27.2588C30.2722 27.2588 30.1719 27.3591 30.1719 27.4829C30.1718 27.6067 30.2722 27.7071 30.396 27.7071Z" fill="#447BE2"/>
</svg>
