<svg width="56" height="50" viewBox="0 0 56 50" fill="none" xmlns="http://www.w3.org/2000/svg">
<path d="M13.52 0.0799866H24.52C21.2933 4.62666 18.7267 9.61332 16.82 15.04C15.06 20.4667 14.2533 25.0867 14.4 28.9L12.64 25.16C16.0133 25.16 18.8733 26.3333 21.22 28.68C23.5667 30.88 24.74 33.6667 24.74 37.04C24.74 40.2667 23.5667 43.1267 21.22 45.62C19.02 47.9667 16.3067 49.14 13.08 49.14C9.41333 49.14 6.33333 47.82 3.84 45.18C1.34667 42.3933 0.100001 38.9467 0.100001 34.84C0.100001 31.32 0.686667 27.5067 1.86 23.4C3.18 19.1467 4.86667 14.9667 6.92 10.86C8.97333 6.75333 11.1733 3.15999 13.52 0.0799866ZM44.32 0.0799866H55.32C52.0933 4.62666 49.5267 9.61332 47.62 15.04C45.86 20.4667 45.0533 25.0867 45.2 28.9L43.44 25.16C46.8133 25.16 49.6733 26.3333 52.02 28.68C54.3667 30.88 55.54 33.6667 55.54 37.04C55.54 40.2667 54.3667 43.1267 52.02 45.62C49.82 47.9667 47.1067 49.14 43.88 49.14C40.2133 49.14 37.1333 47.82 34.64 45.18C32.1467 42.3933 30.9 38.9467 30.9 34.84C30.9 31.32 31.4867 27.5067 32.66 23.4C33.98 19.1467 35.6667 14.9667 37.72 10.86C39.7733 6.75333 41.9733 3.15999 44.32 0.0799866Z" fill="white"/>
<path d="M13.52 0.0799866H24.52C21.2933 4.62666 18.7267 9.61332 16.82 15.04C15.06 20.4667 14.2533 25.0867 14.4 28.9L12.64 25.16C16.0133 25.16 18.8733 26.3333 21.22 28.68C23.5667 30.88 24.74 33.6667 24.74 37.04C24.74 40.2667 23.5667 43.1267 21.22 45.62C19.02 47.9667 16.3067 49.14 13.08 49.14C9.41333 49.14 6.33333 47.82 3.84 45.18C1.34667 42.3933 0.100001 38.9467 0.100001 34.84C0.100001 31.32 0.686667 27.5067 1.86 23.4C3.18 19.1467 4.86667 14.9667 6.92 10.86C8.97333 6.75333 11.1733 3.15999 13.52 0.0799866ZM44.32 0.0799866H55.32C52.0933 4.62666 49.5267 9.61332 47.62 15.04C45.86 20.4667 45.0533 25.0867 45.2 28.9L43.44 25.16C46.8133 25.16 49.6733 26.3333 52.02 28.68C54.3667 30.88 55.54 33.6667 55.54 37.04C55.54 40.2667 54.3667 43.1267 52.02 45.62C49.82 47.9667 47.1067 49.14 43.88 49.14C40.2133 49.14 37.1333 47.82 34.64 45.18C32.1467 42.3933 30.9 38.9467 30.9 34.84C30.9 31.32 31.4867 27.5067 32.66 23.4C33.98 19.1467 35.6667 14.9667 37.72 10.86C39.7733 6.75333 41.9733 3.15999 44.32 0.0799866Z" fill="url(#paint0_linear_257_724)" fill-opacity="0.35"/>
<defs>
<linearGradient id="paint0_linear_257_724" x1="31" y1="-31" x2="31" y2="68.3353" gradientUnits="userSpaceOnUse">
<stop stop-color="#365898"/>
<stop offset="1" stop-color="#365898" stop-opacity="0"/>
</linearGradient>
</defs>
</svg>
