<svg width="72" height="103" viewBox="0 0 72 103" fill="none" xmlns="http://www.w3.org/2000/svg">
<g id="&#208;&#191;&#208;&#190;&#208;&#180;&#208;&#191;&#208;&#184;&#209;&#129;&#209;&#140;" opacity="0.8">
<path id="Vector 3" d="M11.6555 13.8805C11.7193 12.6749 11.474 11.5065 11.6234 10.2902C11.7266 9.45103 12.7246 9.84217 13.3424 9.99776C15.2792 10.4855 17.0367 11.4597 19.0172 11.8265C20.232 12.0515 20.7068 11.6474 21.2409 10.4421C21.9165 8.91757 22.3264 7.24543 22.5222 5.59162C22.6174 4.78684 22.0227 6.22801 21.9716 6.37667C21.8005 6.87395 21.7446 7.37639 21.6723 7.89771C21.3289 10.3742 20.9854 12.8507 20.642 15.3272C19.4003 24.2803 17.7664 33.2817 17.2529 42.3119C16.9763 47.1756 16.2648 51.984 15.596 56.8061C15.5486 57.1479 15.3338 61.4064 14.7864 61.5117C14.0507 61.6532 12.1557 61.6781 11.6003 61.1299C10.7512 60.2917 10.9472 58.111 10.9239 57.0897C10.8455 53.6441 11.1408 50.2304 11.7086 46.8316C12.2963 43.3141 13.4004 40.2864 15.3483 37.29C17.3176 34.2607 19.6943 31.5158 21.8941 28.6623C25.0463 24.5734 28.5244 20.5107 30.945 15.9147C31.4416 14.9717 32.5833 12.0284 32.4365 13.0866C32.3906 13.4176 32.3757 13.5089 32.0312 13.4611" stroke="white" stroke-linecap="round"/>
<path id="Vector 4" d="M18.4405 33.9336C17.7309 39.0496 18.2522 43.9829 18.8965 49.1027C19.2514 51.9233 19.604 54.7472 20.3731 57.4848C20.451 57.7621 20.6391 58.5609 20.9328 57.8847C21.7211 56.0696 22.1981 54.0787 22.908 52.2271C24.4656 48.1645 26.0485 44.1207 27.4419 39.9957C28.1905 37.7797 28.9479 35.5282 29.4121 33.2296C29.4537 33.0239 29.6127 31.9267 29.4933 32.7877C29.1817 35.0344 29.1113 37.1984 29.1925 39.4631C29.2099 39.9466 29.1917 42.3129 29.8658 42.4064C30.288 42.465 30.6718 42.0878 30.949 41.8215C32.6364 40.1999 33.554 37.715 34.4036 35.5835C35.5273 32.7645 36.5145 29.8068 36.9328 26.7902C37.1555 25.1847 36.7816 30.0291 36.6368 31.6435C36.2421 36.0417 36.2039 40.4632 36.0323 44.8729C35.8231 50.2464 35.4319 55.6036 35.1291 60.9714C35.0032 63.2029 34.9817 65.325 34.6739 67.5448C34.6404 67.7861 34.2241 71.2446 33.7612 69.9761C32.749 67.2027 32.1313 64.5 31.9896 61.5028C31.8095 57.693 32.2762 53.8723 32.8064 50.1054C33.2674 46.8295 33.7049 43.3453 35.1069 40.3135C35.9634 38.4614 37.2818 36.2994 38.7522 34.8472C38.9756 34.6266 38.9748 33.9967 39.0371 34.7961C39.1285 35.9704 40.7518 37.9608 41.8793 36.4793C42.6626 35.4502 42.9562 34.0051 43.2454 32.7815C44.1982 28.7507 44.8502 24.6357 45.4688 20.5419C45.6724 19.194 45.853 17.8426 46.0403 16.4923C46.1047 16.0279 45.9115 17.421 45.8471 17.8854C45.7051 18.9092 44.0577 25.3413 46.0253 25.6141C47.3869 25.803 48.4696 20.6131 48.6651 19.958C49.3581 17.6356 49.9389 15.2855 50.4262 12.9112C50.5038 12.533 50.565 11.3925 50.6339 11.7718C50.672 11.9818 50.685 12.6191 50.7144 12.4073C51.0158 10.2336 51.3173 8.05988 51.6188 5.88616C51.6416 5.72148 51.6917 5.22597 51.6873 5.39213C51.6659 6.20573 51.5884 7.01707 51.5476 7.82998C50.8972 20.7869 50.8845 33.7575 50.5292 46.7223C50.1512 60.5136 49.1199 74.2698 48.6759 88.0569C48.5773 91.1191 48.5434 93.2018 48.3615 96.1906C48.3271 96.7553 48.4141 99.8506 47.7613 100.518C47.2839 101.006 45.1845 99.9835 44.7444 99.8078C43.1478 99.1704 41.1584 98.2372 40.0326 96.8683C37.644 93.9641 38.4072 88.9016 38.9002 85.5027C39.7246 79.8193 41.8593 74.9174 45.4596 70.4707C49.8567 65.0398 55.2055 60.677 60.1861 55.8563C62.4471 53.6678 64.0423 51.0204 65.8906 48.4902" stroke="white" stroke-linecap="round"/>
</g>
</svg>
