<?xml version="1.0" encoding="utf-8"?><svg viewBox="0 0 502.66 502.66" xmlns="http://www.w3.org/2000/svg" xmlns:xlink="http://www.w3.org/1999/xlink"><style>:root>svg{display:none}:root>svg:target{display:block}</style><svg viewBox="0 0 60 60" id="attention" xmlns="http://www.w3.org/2000/svg"><g filter="url(#aa)"><circle cx="30" cy="30" r="30"/></g><path d="M32.8 35.5h-5.6L26.15 13h7.65l-1 22.5zM30 46.85c-2.2 0-4-1.85-4-4 0-2.2 1.8-4.05 4-4.05s4.05 1.85 4.05 4.05c0 2.15-1.85 4-4.05 4z"/><defs><filter id="aa" x="0" y="0" width="60" height="60" filterUnits="userSpaceOnUse" color-interpolation-filters="sRGB"><feFlood flood-opacity="0" result="BackgroundImageFix"/><feBlend in="SourceGraphic" in2="BackgroundImageFix" result="shape"/><feColorMatrix in="SourceAlpha" values="0 0 0 0 0 0 0 0 0 0 0 0 0 0 0 0 0 0 127 0" result="hardAlpha"/><feOffset/><feGaussianBlur stdDeviation="7.625"/><feComposite in2="hardAlpha" operator="arithmetic" k2="-1" k3="1"/><feColorMatrix values="0 0 0 0 1 0 0 0 0 1 0 0 0 0 1 0 0 0 0.3 0"/><feBlend in2="shape" result="effect1_innerShadow_257_943"/></filter></defs></svg><svg viewBox="0 0 26 26" id="case" xmlns="http://www.w3.org/2000/svg"><path d="M22.274 19.976l-4.125-4.125a8.07 8.07 0 001.351-4.476c0-4.48-3.645-8.125-8.125-8.125S3.25 6.895 3.25 11.375 6.895 19.5 11.375 19.5a8.07 8.07 0 004.476-1.351l4.125 4.125a1.625 1.625 0 002.298-2.298zM5.687 11.375a5.694 5.694 0 015.688-5.688 5.694 5.694 0 015.688 5.688 5.694 5.694 0 01-5.688 5.688 5.694 5.694 0 01-5.688-5.688z"/></svg><svg viewBox="0 0 85 85" id="eye" xmlns="http://www.w3.org/2000/svg"><path d="M14.132 10.59a3.542 3.542 0 00-2.47 6.08l6.316 6.316C11.136 28.48 6.7 35.218 4.503 39.172c-1.175 2.118-1.137 4.668.014 6.8 4.09 7.572 15.851 24.86 37.983 24.86 7.351 0 13.48-1.93 18.566-4.758l7.263 7.263a3.544 3.544 0 005.06.051 3.541 3.541 0 00-.051-5.06L16.67 11.663a3.543 3.543 0 00-2.539-1.072zM42.5 14.166c-4.292 0-8.125.707-11.628 1.812l9.069 9.069c.84-.124 1.684-.256 2.56-.256 9.778 0 17.708 7.93 17.708 17.708 0 .875-.133 1.72-.256 2.56l12.146 12.147c3.804-4.222 6.588-8.504 8.253-11.352 1.254-2.139 1.248-4.767.062-6.945-4.14-7.625-15.888-24.743-37.914-24.743zM27.745 32.753l5.182 5.181a10.438 10.438 0 00-1.052 4.565c0 5.869 4.757 10.625 10.625 10.625 1.642 0 3.185-.383 4.566-1.051l5.188 5.188c-3.52 2.333-7.91 3.451-12.59 2.725-7.43-1.154-13.496-7.22-14.65-14.65-.726-4.678.4-9.065 2.732-12.583z"/></svg><svg viewBox="0 0 343.5 280.55" id="eye-big" xmlns="http://www.w3.org/2000/svg"><path opacity=".7" d="M47.015.472a15.543 15.543 0 00-10.837 26.682l27.714 27.714c-30.024 24.113-49.494 53.678-59.13 71.03-5.16 9.294-4.991 20.483.06 29.839C22.772 188.965 74.38 264.832 171.5 264.832c32.258 0 59.152-8.474 81.473-20.884l31.872 31.873a15.565 15.565 0 005.046 3.503 15.534 15.534 0 0012.041.122 15.529 15.529 0 008.515-8.515 15.534 15.534 0 00-.122-12.042 15.53 15.53 0 00-3.503-5.045L58.155 5.177A15.544 15.544 0 0047.015.472zM171.5 16.166c-18.836 0-35.655 3.104-51.026 7.953l39.795 39.795c3.683-.544 7.392-1.123 11.231-1.123 42.911 0 77.709 34.797 77.709 77.708 0 3.839-.58 7.548-1.124 11.231l53.304 53.303c16.691-18.525 28.908-37.316 36.213-49.812 5.502-9.387 5.479-20.918.273-30.476-18.168-33.461-69.721-108.58-166.375-108.58zm-64.747 81.563l22.736 22.736c-2.933 6.059-4.614 12.832-4.614 20.034 0 25.753 20.873 46.625 46.625 46.625 7.203 0 13.975-1.681 20.034-4.614l22.767 22.766c-15.442 10.239-34.71 15.145-55.246 11.96-32.607-5.067-59.225-31.685-64.292-64.291-3.183-20.528 1.76-39.778 11.99-55.216z"/></svg><svg viewBox="0 0 502.664 502.664" id="icon" xmlns="http://www.w3.org/2000/svg"><path d="M153.821 358.226L0 274.337v-46.463l153.821-83.414v54.574L46.636 250.523l107.185 53.431v54.272zm26.273 29.358L282.103 115.08h32.227L212.084 387.584h-31.99zm168.749-29.358v-54.272l107.164-52.999-107.164-52.59v-53.927l153.821 83.522v46.183l-153.821 84.083z"/></svg><svg viewBox="0 0 24 33" id="next" xmlns="http://www.w3.org/2000/svg"><path d="M13.378 8.134v7.548-2.079c0-.626.49-1.134 1.097-1.134.605 0 1.097.508 1.097 1.134v2.08-.946c0-.626.491-1.134 1.097-1.134s1.097.508 1.097 1.134v2.081-.57c0-.626.491-1.133 1.096-1.133.607 0 1.098.507 1.098 1.133v5.866-.001a3.698 3.698 0 01-1.035 2.579 4.155 4.155 0 00-1.159 2.893 4.534 4.534 0 01-6.582 0h-.002v-2.878a4.558 4.558 0 01-2.192-3.923L7.64 13.74c1.186-.245 2.342.554 2.578 1.782v.001l.574 2.992h.392l-.002-10.38c0-.628.492-1.135 1.098-1.135.606 0 1.098.507 1.098 1.134zM5 8.32l1.76 1.32V7L5 8.32zm14.08.001L17.32 7l.001 2.64 1.76-1.319zM13.8 7.88h3.52-3.52zm-7.04 0h4.4-4.4z" stroke-width=".7" stroke-miterlimit="10" stroke-linecap="round" stroke-linejoin="round" opacity=".5"/></svg><svg viewBox="0 0 15 14" id="phone" xmlns="http://www.w3.org/2000/svg"><path d="M14.73 12.123c-.306.866-1.519 1.583-2.486 1.793-.662.14-1.526.253-4.435-.956-3.722-1.546-6.119-5.338-6.305-5.584C1.324 7.13 0 5.368 0 3.546S.923.836 1.295.456C1.6.143 2.105 0 2.59 0c.156 0 .297.008.424.014.372.016.559.038.804.627.306.738 1.05 2.56 1.138 2.748.09.187.18.441.054.687-.119.254-.223.367-.41.582-.187.217-.364.382-.55.613-.172.202-.365.418-.15.79.216.366.96 1.583 2.055 2.56 1.414 1.263 2.56 1.666 2.97 1.837.305.127.67.097.892-.141.284-.306.634-.814.99-1.314.253-.359.573-.403.908-.276.342.119 2.152 1.016 2.524 1.201.371.188.617.276.707.434.089.156.089.895-.216 1.761z"/></svg><svg viewBox="0 0 55.44 49.06" id="quote" xmlns="http://www.w3.org/2000/svg"><path d="M13.52.08h11c-3.227 4.547-5.793 9.533-7.7 14.96-1.76 5.427-2.567 10.047-2.42 13.86l-1.76-3.74c3.373 0 6.233 1.173 8.58 3.52 2.347 2.2 3.52 4.987 3.52 8.36 0 3.227-1.173 6.087-3.52 8.58-2.2 2.347-4.913 3.52-8.14 3.52-3.667 0-6.747-1.32-9.24-3.96C1.347 42.393.1 38.947.1 34.84c0-3.52.587-7.333 1.76-11.44a83.07 83.07 0 015.06-12.54c2.053-4.107 4.253-7.7 6.6-10.78zm30.8 0h11c-3.227 4.547-5.793 9.533-7.7 14.96-1.76 5.427-2.567 10.047-2.42 13.86l-1.76-3.74c3.373 0 6.233 1.173 8.58 3.52 2.347 2.2 3.52 4.987 3.52 8.36 0 3.227-1.173 6.087-3.52 8.58-2.2 2.347-4.913 3.52-8.14 3.52-3.667 0-6.747-1.32-9.24-3.96-2.493-2.787-3.74-6.233-3.74-10.34 0-3.52.587-7.333 1.76-11.44a83.074 83.074 0 015.06-12.54c2.053-4.107 4.253-7.7 6.6-10.78z"/><path d="M13.52.08h11c-3.227 4.547-5.793 9.533-7.7 14.96-1.76 5.427-2.567 10.047-2.42 13.86l-1.76-3.74c3.373 0 6.233 1.173 8.58 3.52 2.347 2.2 3.52 4.987 3.52 8.36 0 3.227-1.173 6.087-3.52 8.58-2.2 2.347-4.913 3.52-8.14 3.52-3.667 0-6.747-1.32-9.24-3.96C1.347 42.393.1 38.947.1 34.84c0-3.52.587-7.333 1.76-11.44a83.07 83.07 0 015.06-12.54c2.053-4.107 4.253-7.7 6.6-10.78zm30.8 0h11c-3.227 4.547-5.793 9.533-7.7 14.96-1.76 5.427-2.567 10.047-2.42 13.86l-1.76-3.74c3.373 0 6.233 1.173 8.58 3.52 2.347 2.2 3.52 4.987 3.52 8.36 0 3.227-1.173 6.087-3.52 8.58-2.2 2.347-4.913 3.52-8.14 3.52-3.667 0-6.747-1.32-9.24-3.96-2.493-2.787-3.74-6.233-3.74-10.34 0-3.52.587-7.333 1.76-11.44a83.074 83.074 0 015.06-12.54c2.053-4.107 4.253-7.7 6.6-10.78z" fill-opacity=".35"/><defs><linearGradient id="ha" x1="31" y1="-31" x2="31" y2="68.335" gradientUnits="userSpaceOnUse"><stop stop-color="#365898"/><stop offset="1" stop-color="#365898" stop-opacity="0"/></linearGradient></defs></svg><svg viewBox="0 0 20 20" id="telegram" xmlns="http://www.w3.org/2000/svg"><path d="M2.43 9.84c5.236-2.304 12.012-5.113 12.948-5.501 2.454-1.018 3.207-.823 2.831 1.43-.27 1.62-1.047 6.982-1.667 10.32-.368 1.979-1.194 2.213-2.492 1.357-.624-.412-3.774-2.495-4.458-2.984-.624-.446-1.485-.982-.405-2.039.384-.376 2.902-2.78 4.864-4.652.257-.246-.066-.65-.362-.453a2288.152 2288.152 0 00-6.778 4.505c-.705.48-1.382.699-2.598.35-.918-.264-1.815-.579-2.164-.699-1.345-.462-1.026-1.06.28-1.634z"/></svg><svg viewBox="0 0 20 20" id="whatsapp" xmlns="http://www.w3.org/2000/svg"><path d="M15.898 4.107A8.29 8.29 0 009.31 1.695c-3.34.268-6.27 2.592-7.25 5.797-.7 2.29-.405 4.68.735 6.656l-1.08 3.585a.46.46 0 00.558.576l3.754-1.006a8.317 8.317 0 003.977 1.014h.004c3.495 0 6.725-2.139 7.843-5.451 1.088-3.23.283-6.52-1.954-8.76zm-1.816 8.855c-.173.486-1.023.954-1.404.988-.382.035-.74.173-2.496-.52-2.114-.833-3.45-3-3.553-3.14-.104-.138-.849-1.127-.849-2.15s.538-1.527.729-1.734a.763.763 0 01.555-.26c.138 0 .277 0 .398.005.148.006.312.013.468.359.185.412.59 1.44.641 1.544.052.104.087.226.018.364-.07.139-.105.225-.208.347-.104.122-.218.27-.312.364-.104.104-.212.217-.091.424.121.209.538.89 1.156 1.44.795.709 1.465.928 1.673 1.033.208.104.33.087.45-.053.122-.138.52-.606.66-.815.137-.208.277-.173.467-.104.191.07 1.214.573 1.421.677.209.104.347.156.399.242.051.086.051.503-.122.989z"/></svg></svg>