<svg width="525" height="158" viewBox="0 0 525 158" fill="none" xmlns="http://www.w3.org/2000/svg">
<path d="M104.3 154.001H76.58V123.551H0.980001V101.291L76.58 3.85097H104.3V101.291H125.3V123.551H104.3V154.001ZM76.58 39.341L27.86 101.291H76.58V39.341ZM201.738 157.361C189.278 157.361 178.568 154.281 169.608 148.121C160.648 141.961 153.788 133.071 149.028 121.451C144.268 109.691 141.888 95.551 141.888 79.031C141.888 54.111 147.208 34.791 157.848 21.071C168.488 7.35097 183.118 0.490975 201.738 0.490975C220.498 0.490975 235.128 7.35097 245.628 21.071C256.268 34.791 261.588 54.111 261.588 79.031C261.588 95.551 259.208 109.691 254.448 121.451C249.688 133.071 242.828 141.961 233.868 148.121C225.048 154.281 214.338 157.361 201.738 157.361ZM201.738 134.261C211.678 134.261 219.378 129.641 224.838 120.401C230.298 111.021 233.028 97.231 233.028 79.031C233.028 60.691 230.298 46.901 224.838 37.661C219.378 28.281 211.678 23.591 201.738 23.591C191.938 23.591 184.308 28.281 178.848 37.661C173.388 46.901 170.658 60.691 170.658 79.031C170.658 97.231 173.388 111.021 178.848 120.401C184.308 129.641 191.938 134.261 201.738 134.261ZM339.346 157.361C326.886 157.361 316.176 154.281 307.216 148.121C298.256 141.961 291.396 133.071 286.636 121.451C281.876 109.691 279.496 95.551 279.496 79.031C279.496 54.111 284.816 34.791 295.456 21.071C306.096 7.35097 320.726 0.490975 339.346 0.490975C358.106 0.490975 372.736 7.35097 383.236 21.071C393.876 34.791 399.196 54.111 399.196 79.031C399.196 95.551 396.816 109.691 392.056 121.451C387.296 133.071 380.436 141.961 371.476 148.121C362.656 154.281 351.946 157.361 339.346 157.361ZM339.346 134.261C349.286 134.261 356.986 129.641 362.446 120.401C367.906 111.021 370.636 97.231 370.636 79.031C370.636 60.691 367.906 46.901 362.446 37.661C356.986 28.281 349.286 23.591 339.346 23.591C329.546 23.591 321.916 28.281 316.456 37.661C310.996 46.901 308.266 60.691 308.266 79.031C308.266 97.231 310.996 111.021 316.456 120.401C321.916 129.641 329.546 134.261 339.346 134.261ZM524.623 89.951H430.543V67.691H524.623V89.951ZM488.713 125.861H466.453V31.781H488.713V125.861Z" fill="white"/>
<path d="M104.3 154.001H76.58V123.551H0.980001V101.291L76.58 3.85097H104.3V101.291H125.3V123.551H104.3V154.001ZM76.58 39.341L27.86 101.291H76.58V39.341ZM201.738 157.361C189.278 157.361 178.568 154.281 169.608 148.121C160.648 141.961 153.788 133.071 149.028 121.451C144.268 109.691 141.888 95.551 141.888 79.031C141.888 54.111 147.208 34.791 157.848 21.071C168.488 7.35097 183.118 0.490975 201.738 0.490975C220.498 0.490975 235.128 7.35097 245.628 21.071C256.268 34.791 261.588 54.111 261.588 79.031C261.588 95.551 259.208 109.691 254.448 121.451C249.688 133.071 242.828 141.961 233.868 148.121C225.048 154.281 214.338 157.361 201.738 157.361ZM201.738 134.261C211.678 134.261 219.378 129.641 224.838 120.401C230.298 111.021 233.028 97.231 233.028 79.031C233.028 60.691 230.298 46.901 224.838 37.661C219.378 28.281 211.678 23.591 201.738 23.591C191.938 23.591 184.308 28.281 178.848 37.661C173.388 46.901 170.658 60.691 170.658 79.031C170.658 97.231 173.388 111.021 178.848 120.401C184.308 129.641 191.938 134.261 201.738 134.261ZM339.346 157.361C326.886 157.361 316.176 154.281 307.216 148.121C298.256 141.961 291.396 133.071 286.636 121.451C281.876 109.691 279.496 95.551 279.496 79.031C279.496 54.111 284.816 34.791 295.456 21.071C306.096 7.35097 320.726 0.490975 339.346 0.490975C358.106 0.490975 372.736 7.35097 383.236 21.071C393.876 34.791 399.196 54.111 399.196 79.031C399.196 95.551 396.816 109.691 392.056 121.451C387.296 133.071 380.436 141.961 371.476 148.121C362.656 154.281 351.946 157.361 339.346 157.361ZM339.346 134.261C349.286 134.261 356.986 129.641 362.446 120.401C367.906 111.021 370.636 97.231 370.636 79.031C370.636 60.691 367.906 46.901 362.446 37.661C356.986 28.281 349.286 23.591 339.346 23.591C329.546 23.591 321.916 28.281 316.456 37.661C310.996 46.901 308.266 60.691 308.266 79.031C308.266 97.231 310.996 111.021 316.456 120.401C321.916 129.641 329.546 134.261 339.346 134.261ZM524.623 89.951H430.543V67.691H524.623V89.951ZM488.713 125.861H466.453V31.781H488.713V125.861Z" fill="url(#paint0_linear_257_1093)" fill-opacity="0.35"/>
<defs>
<linearGradient id="paint0_linear_257_1093" x1="270" y1="-34.999" x2="270" y2="238.173" gradientUnits="userSpaceOnUse">
<stop stop-color="#365898"/>
<stop offset="0.9999" stop-color="#365898" stop-opacity="0.0572917"/>
<stop offset="1" stop-color="#365898" stop-opacity="0"/>
</linearGradient>
</defs>
</svg>
